<svg xmlns="http://www.w3.org/2000/svg" xmlns:xlink="http://www.w3.org/1999/xlink" width="70" height="70" viewBox="0 0 70 70">
  <style>
    .line {
      stroke-dasharray: 150px;
      stroke-dashoffset: 150px;
      animation: showLine 3s linear infinite;
    }
    @keyframes showLine {
      0% {
        stroke-dashoffset: 0;
      }
      100% {
        stroke-dashoffset: 300px;
      }
    }
  </style>
  <defs>
    <clipPath id="b">
      <path id="a" d="M46.726 33.743c-2.616-2.023-6.784-2.499-10.43-.015-4.998 3.405-5.532 9.662-2.83 14.5 2.674 4.799 7.727 6.457 13.5 5.937 6.534-.589 11.762-4.172 14.811-8.33 2.743-3.739 5.689-12.791-.149-21.419-4.449-6.57-10.252-8.68-16.466-8.673-6.846.004-11.563 5.144-14.834 9.011-5.079 6.01-7.393 7.337-11.765 7.701-4.366.368-8.421-1.498-10.43-3.565C6.12 26.824 5 25.282 5 25.282s2.434 4.536 5.705 7.25c3.518 2.921 8.946 4.351 14.744 2.256 6.894-2.489 10.67-6.741 12.972-8.058 4.7-2.685 11.096-.498 12.452 4.325 1.575 5.595-1.451 9.371-1.451 9.371s1.039-3.802-2.696-6.683"/>
    </clipPath>
  </defs>
  <path fill="#fff" d="M46.726 33.743c-2.616-2.023-6.784-2.499-10.43-.015-4.998 3.405-5.532 9.662-2.83 14.5 2.674 4.799 7.727 6.457 13.5 5.937 6.534-.589 11.762-4.172 14.811-8.33 2.743-3.739 5.689-12.791-.149-21.419-4.449-6.57-10.252-8.68-16.466-8.673-6.846.004-11.563 5.144-14.834 9.011-5.079 6.01-7.393 7.337-11.765 7.701-4.366.368-8.421-1.498-10.43-3.565C6.12 26.824 5 25.282 5 25.282s2.434 4.536 5.705 7.25c3.518 2.921 8.946 4.351 14.744 2.256 6.894-2.489 10.67-6.741 12.972-8.058 4.7-2.685 11.096-.498 12.452 4.325 1.575 5.595-1.451 9.371-1.451 9.371s1.039-3.802-2.696-6.683"/>
  <g clip-path="url(#b)">
     <path class="line" fill="none" stroke="#00708D" stroke-width="28" stroke-miterlimit="10" d="M4.887 24.958s.5 1.042 4.667 0 14.542-3.833 18.208-6.167 14.959-6.417 20.959-5.75c6 .667 9.833 6.125 11.833 10.125s3.333 10.646.833 17.312-8.625 7.729-11.625 8.854-6.375 1.375-10.25-2-4.343-5.183-4.5-8.375c-.066-1.346-1.542-3.497-1.542-3.497"/>
  </g>
</svg>
