<svg version="1.1" xmlns="http://www.w3.org/2000/svg" x="0" y="0" width="200" height="29.813" viewBox="0 0 200 29.813" xml:space="preserve">
  <style>
    .st1{fill:#ffffff}
  </style>
  <path class="st1" d="M42.347 6.729h4.893c1.559 0 2.528.73 3.621 2.167l8.061 12.958h.063V6.729h2.404c1.26 0 2.239.94 2.239 2.239v20.307h-1.821c-2.181 0-3.182-.457-4.531-2.243l-7.985-12.85h-.063v15.093h-2.403c-1.191 0-2.24-.873-2.24-2.238V8.968c0-1.223-.966-2.239-2.238-2.239"/>
  <path class="st1" d="M68.563 6.729h18.458c1.343 0 2.239 1.082 2.239 2.239v2.274h-6.758v18.033h-2.719c-1.24 0-2.238-.888-2.238-2.238V11.242h-4.52c-1.29 0-2.239-.983-2.239-2.274.002-1.205-.93-2.239-2.223-2.239"/>
  <path class="st1" d="M29.347 27.037V12.003h2.719c1.225 0 2.238.925 2.238 2.239v15.034h-2.719c-1.22-.001-2.238-.961-2.238-2.239"/>
  <path class="st1" d="M2.239 8.968v18.069c0 1.273.972 2.238 2.238 2.238h2.72V20.97h.001l6.217 6.329c1.843 1.797 2.966 1.976 4.517 1.976h3.614L10.188 18.003 21.546 6.729h-6.189l-8.159 8.305-.001-.002-.019-6.064c0-1.11-.902-2.239-2.24-2.239H0c1.222 0 2.239 1.107 2.239 2.239"/>
  <path class="st1" d="M105.076 6.192c-6.522 0-11.81 5.287-11.81 11.811 0 6.522 5.287 11.81 11.81 11.81 6.523 0 11.811-5.287 11.811-11.81 0-6.524-5.287-11.811-11.811-11.811m0 19.094c-4.022 0-7.283-3.261-7.283-7.283 0-4.023 3.26-7.285 7.283-7.285s7.284 3.261 7.284 7.285c0 4.022-3.261 7.283-7.284 7.283"/>
  <path class="st1" d="M32.011 4.495c-.653-.505-1.694-.624-2.604-.004-1.248.85-1.381 2.413-.707 3.621.667 1.198 1.929 1.613 3.371 1.482 1.631-.147 2.937-1.042 3.698-2.08.685-.934 1.421-3.194-.037-5.349C34.621.524 33.172-.002 31.62 0c-1.71.001-2.888 1.284-3.705 2.25-1.268 1.5-1.846 1.832-2.938 1.923-1.09.092-2.103-.374-2.605-.89s-.782-.901-.782-.901.608 1.133 1.424 1.811c.878.729 2.234 1.086 3.682.563 1.722-.621 2.665-1.683 3.239-2.012 1.174-.67 2.771-.125 3.11 1.08.394 1.397-.363 2.34-.363 2.34s.262-.95-.671-1.669"/>
  <g opacity=".65">
    <path class="st1" d="M127.039 17.974c0-6.923 5.05-11.592 11.814-11.592 6.797 0 11.847 4.7 11.847 11.529 0 6.859-5.05 11.655-11.879 11.655-6.701-.001-11.782-4.669-11.782-11.592m19.184 0c0-4.383-3.05-7.527-7.369-7.527-4.287 0-7.336 3.145-7.336 7.527s3.049 7.527 7.336 7.527c4.319 0 7.369-3.145 7.369-7.527"/>
    <path class="st1" d="M177.518 6.699v22.549h-4.098l-11.147-15.975v15.975h-4.097V6.699h4.129l11.115 15.943V6.699z"/>
    <path class="st1" d="M186.247 6.699h13.499v3.78h-9.211v5.653h8.924v3.652h-8.924v5.686H200v3.778h-13.753z"/>
  </g>
</svg>
