<?xml version="1.0" encoding="utf-8"?>
<!-- Generator: Adobe Illustrator 23.0.0, SVG Export Plug-In . SVG Version: 6.00 Build 0)  -->
<svg version="1.1" id="圖層_1" xmlns="http://www.w3.org/2000/svg" xmlns:xlink="http://www.w3.org/1999/xlink" x="0px" y="0px"
	 viewBox="0 0 50 50" style="enable-background:new 0 0 50 50;" xml:space="preserve">
<g>
	<g id="Icon-Location" transform="translate(232.000000, 376.000000)">
		<path id="Fill-55" d="M-207-326l-1-1.2c-0.6-0.8-16.8-19.8-16.8-31.1c0-9.8,8-17.8,17.8-17.8s17.8,8,17.8,17.8
			c0,11.3-16.2,30.3-16.8,31.1L-207-326L-207-326z M-207-373.6c-8.5,0-15.2,6.9-15.2,15.2c0,8.9,11.7,24,15.2,28.3
			c3.5-4.3,15.2-19.3,15.2-28.3C-191.8-366.7-198.5-373.6-207-373.6L-207-373.6z"/>
		<path id="Fill-56" d="M-207-351.5c-3.7,0-6.8-3.1-6.8-6.8s3.1-6.8,6.8-6.8s6.8,3.1,6.8,6.8S-203.3-351.5-207-351.5L-207-351.5z
			 M-207-362.5c-2.3,0-4.2,1.9-4.2,4.2s1.9,4.2,4.2,4.2s4.2-1.9,4.2-4.2S-204.7-362.5-207-362.5L-207-362.5z"/>
	</g>
</g>
</svg>
