<?xml version="1.0" encoding="utf-8"?>
<!-- Generator: Adobe Illustrator 23.0.0, SVG Export Plug-In . SVG Version: 6.00 Build 0)  -->
<svg version="1.1" id="圖層_1" xmlns="http://www.w3.org/2000/svg" xmlns:xlink="http://www.w3.org/1999/xlink" x="0px" y="0px"
	 viewBox="0 0 50 50" style="enable-background:new 0 0 50 50;" xml:space="preserve">
<g>
	<path d="M5.3,17.2c-0.4-3.2-0.7-5.6-0.8-6.7L25,1.8l20.5,8.8c-0.1,0.8-0.4,2.8-1.3,7.2c-0.1,0.5,0.2,0.9,0.7,1c0.1,0,0.1,0,0.2,0
		c0.4,0,0.8-0.3,0.9-0.7c1.5-6.6,1.4-8.1,1.4-8.3c0-0.3-0.2-0.6-0.5-0.7L25.3,0.1c-0.2-0.1-0.5-0.1-0.7,0L3.3,9.2
		c-0.3,0.1-0.6,0.5-0.5,0.9c0,0,0.2,3,0.8,7.4c0.1,0.5,0.5,0.8,1,0.7C5.1,18.2,5.4,17.7,5.3,17.2z"/>
	<path d="M36.8,39.1c-0.4-0.2-1-0.1-1.2,0.3c-2.2,4-5.3,5.7-9.6,8.1L25,48.1l-0.1,0c-5.2-2.9-8.6-4.8-11.1-9.5
		c-0.2-0.4-0.8-0.6-1.2-0.4c-0.4,0.2-0.6,0.8-0.4,1.2c2.7,5.1,6.5,7.3,11.8,10.2l0.5,0.3C24.7,50,24.8,50,25,50s0.3,0,0.4-0.1
		l1.5-0.8c4.4-2.4,7.8-4.3,10.3-8.8C37.4,39.9,37.2,39.4,36.8,39.1z"/>
	<path d="M40.9,22l-4.3,0c-2.5-1.9-6.7-4.9-7.8-5.3c-0.3-0.1-1-0.2-4-0.3c-2.9,0-6.6,0.1-7.9,0.1l-0.5,0c-0.6,0-0.8,0-6.4,4.7
		c-0.3,0-0.8,0-1.2,0c-0.6,0-1.1,0-1.4,0c-0.7,0-2.8,0.4-2.8,3.5l0,4.5c0,0.6,0.2,1.2,0.7,1.7c0.5,0.5,1.1,0.7,1.7,0.7l2,0
		c0.2,0.6,0.5,1.2,1,1.7c0.8,0.8,1.9,1.3,3,1.3c0,0,0,0,0,0c1.9,0,3.5-1.2,4-2.9l17.2,0.1c0.2,0.6,0.5,1.2,1,1.7
		c0.8,0.8,1.9,1.3,3,1.3c0,0,0,0,0,0c1.1,0,2.2-0.4,3-1.2c0.5-0.5,0.8-1.1,1-1.7l2.4,0c0,0,0,0,0,0c0.8,0,1.4-0.6,1.5-1.4l0-3.3
		c0-1.2-0.7-2.5-1.9-3.6C43.3,22.6,42,22.1,40.9,22z M16.6,18.3l0.5,0c0.7,0,2.3-0.1,4.1-0.1l0.6,3.7l-6.4,0c0,0,0-0.1,0-0.1
		c-0.5-1.2-0.8-1.7-0.8-1.9C15.6,19,16.3,18.5,16.6,18.3z M13.1,33C13,33,13,33,13.1,33c-0.7,0-1.3-0.3-1.8-0.8
		c-0.5-0.5-0.7-1.1-0.7-1.8c0-0.7,0.3-1.3,0.8-1.8c0.5-0.5,1.1-0.7,1.8-0.7c0,0,0,0,0,0c1.4,0,2.5,1.2,2.5,2.6
		C15.6,31.8,14.4,33,13.1,33z M38.3,33.1C38.3,33.1,38.3,33.1,38.3,33.1c-0.7,0-1.3-0.3-1.8-0.8c-0.5-0.5-0.7-1.1-0.7-1.8
		c0-1.4,1.1-2.5,2.5-2.5c0,0,0,0,0,0c1.4,0,2.5,1.2,2.5,2.6c0,0.7-0.3,1.3-0.8,1.8C39.6,32.9,39,33.1,38.3,33.1z M44.5,30.2l-1.9,0
		c-0.2-2.2-2-3.9-4.2-3.9c0,0,0,0,0,0c-2.2,0-4,1.7-4.3,3.8L17.3,30c-0.2-2.2-2-3.9-4.2-3.9c0,0,0,0,0,0c-1.1,0-2.2,0.4-3,1.2
		C9.3,28.1,8.9,29,8.8,30L7,30c-0.2,0-0.3-0.1-0.5-0.2c-0.1-0.1-0.2-0.3-0.2-0.5l0-4.5C6.4,23.3,7,23,7.6,23c0.3,0,0.8,0,1.3,0
		c0.6,0,1.2,0,1.5,0c0.2,0,0.4-0.1,0.6-0.2c0.7-0.6,1.4-1.2,2-1.7c0.2,0.4,0.4,0.9,0.7,1.5l0.1,0.2c0.2,0.5,0.7,0.9,1.3,0.9l8.1,0
		l9.7,0.1c0,0,0,0,0,0c0.5,0,0.9-0.4,0.9-0.9c0-0.5-0.4-0.9-0.9-0.9L23.5,22l-0.6-3.7c0.7,0,1.3,0,2,0c2.6,0,3.2,0.1,3.4,0.2
		c0.6,0.2,3.6,2.3,7.5,5.2c0.1,0.1,0.3,0.2,0.5,0.2l4.6,0c0.7,0,1.6,0.4,2.4,1.1c0.8,0.7,1.3,1.6,1.3,2.3L44.5,30.2z"/>
	<path d="M39.7,16.7C39.7,16.7,39.7,16.7,39.7,16.7c0.5,0,0.9-0.3,0.9-0.8c0.2-3,0.1-3.2,0-3.4c-0.1-0.2-0.2-0.3-0.4-0.4l-5.6-2.4
		c-0.4-0.2-1,0-1.1,0.5c-0.2,0.4,0,1,0.5,1.1l5,2.2c0,0.4,0,1.1-0.1,2.3C38.8,16.3,39.2,16.7,39.7,16.7z"/>
</g>
</svg>
