<?xml version="1.0" encoding="utf-8"?>
<!-- Generator: Adobe Illustrator 16.0.0, SVG Export Plug-In . SVG Version: 6.00 Build 0)  -->
<!DOCTYPE svg PUBLIC "-//W3C//DTD SVG 1.1//EN" "http://www.w3.org/Graphics/SVG/1.1/DTD/svg11.dtd">
<svg version="1.1" id="圖層_1" xmlns="http://www.w3.org/2000/svg" xmlns:xlink="http://www.w3.org/1999/xlink" x="0px" y="0px"
	 width="86.59px" height="86.59px" viewBox="0 -10.658 86.59 86.59" enable-background="new 0 -10.658 86.59 86.59"
	 xml:space="preserve">
<path fill="#58595B" d="M15.906,33.055c-3.587,0-6.505,2.919-6.505,6.508c0,3.587,2.918,6.505,6.505,6.505
	c3.587,0,6.506-2.918,6.506-6.505C22.412,35.974,19.493,33.055,15.906,33.055 M15.906,42.068c-1.381,0-2.505-1.124-2.505-2.505
	c0-1.383,1.124-2.508,2.505-2.508c1.382,0,2.506,1.125,2.506,2.508C18.412,40.944,17.288,42.068,15.906,42.068"/>
<path fill="#58595B" d="M69.412,33.055c-3.586,0-6.504,2.919-6.504,6.508c0,3.587,2.918,6.505,6.504,6.505
	c3.59,0,6.51-2.918,6.51-6.505C75.921,35.974,73.001,33.055,69.412,33.055 M69.412,42.068c-1.381,0-2.504-1.124-2.504-2.505
	c0-1.383,1.123-2.508,2.504-2.508c1.385,0,2.51,1.125,2.51,2.508C71.921,40.944,70.796,42.068,69.412,42.068"/>
<path fill="#58595B" d="M86.311,19.387c-0.791-2.494-3.08-4.17-5.697-4.17c-0.616,0-1.226,0.096-1.801,0.279l-3.469,1.1
	l-5.843-12.34l-1.782-0.601C60.94,1.367,51.112,0,41.427,0c-9.582,0-18.094,1.333-23.965,3.753l-1.618,0.665L10.25,17.339
	l-2.47-0.782c-0.584-0.186-1.19-0.278-1.801-0.278c-2.617,0-4.907,1.676-5.699,4.172c-0.481,1.519-0.34,3.136,0.396,4.555
	c0.737,1.418,1.979,2.463,3.497,2.942l0.61,0.193l-0.438,0.801c-1.28,2.598-2.162,5.84-2.247,8.26
	c-0.048,1.354-0.017,4.068,0.101,6.718l0.058,14.655v0.145c-0.001,1.419-0.001,2.758,0.42,3.911c0.622,1.705,2.035,2.645,3.98,2.645
	h8.677c1.945,0,3.358-0.938,3.98-2.646c0.421-1.154,0.421-2.494,0.42-3.913V58.57c0,0-0.001-0.7-0.003-1.587
	c10.213,0.898,16.743,1.35,23.206,1.35h0.002c6.411,0,12.712-0.44,22.49-1.322c-0.002,0.874-0.004,1.563-0.004,1.563v0.142
	c0,1.419-0.002,2.759,0.421,3.913c0.62,1.706,2.034,2.646,3.979,2.646h8.676c1.944,0,3.357-0.938,3.979-2.644
	c0.421-1.154,0.421-2.492,0.42-3.909l0.058-14.546c0.002-0.043,0.006-0.084,0.01-0.128c0.186-2.689,0.379-5.472,0.336-7.079
	c-0.071-2.761-0.949-5.984-2.326-8.583l-0.45-0.897l1.892-0.599C85.558,25.894,87.304,22.53,86.311,19.387 M18.868,7.5l0.116-0.048
	C24.385,5.226,32.356,4,41.427,4C50.701,4,60.05,5.288,66.44,7.446l0.174,0.059l4.859,10.264
	c-8.563,2.286-18.675,2.293-23.744,2.293l-3.931,0.006c-11.124,0.019-21.677,0.04-29.65-1.665L18.868,7.5z M15.734,58.717
	c0.001,0.851,0.001,2.107-0.173,2.541c-0.049,0.008-0.122,0.016-0.227,0.016H6.657c-0.105,0-0.178-0.008-0.227-0.016
	c-0.174-0.434-0.174-1.688-0.173-2.537l-0.013-3.388c0.612,0.335,1.282,0.545,1.998,0.609c2.701,0.248,5.173,0.474,7.488,0.684
	c0.002,1.046,0.004,1.947,0.004,1.947V58.717z M78.902,58.574v0.147c0.001,0.849,0.001,2.104-0.172,2.536
	c-0.049,0.008-0.123,0.016-0.229,0.016h-8.676c-0.104,0-0.179-0.008-0.228-0.016c-0.175-0.434-0.175-1.69-0.175-2.541v-0.14
	c0,0,0.002-0.894,0.006-1.934c2.175-0.201,4.49-0.419,7.02-0.656c0.907-0.085,1.731-0.385,2.467-0.837L78.902,58.574z M81.21,23.075
	l-6.354,2.012l2.564,5.129c1.105,2.089,1.828,4.715,1.884,6.857c0.034,1.324-0.132,3.854-0.293,6.197h-0.05l-0.004,0.756
	c-0.102,1.474-0.194,2.854-0.231,3.841c-0.062,1.631-1.099,3.992-2.662,4.14c-16.494,1.549-24.772,2.325-33.126,2.325h-0.002
	c-8.42,0-17.079-0.793-34.331-2.372c-1.235-0.112-1.859-2.178-2.033-3.377c-0.162-1.12-0.289-2.926-0.374-4.808L6.197,43.27h-0.02
	c-0.094-2.313-0.127-4.657-0.082-5.93c0.055-1.558,0.644-4.211,1.798-6.556l2.735-4.991l-5.249-1.662
	c-0.5-0.157-0.91-0.503-1.153-0.972c-0.244-0.469-0.291-1.003-0.133-1.503c0.263-0.826,1.02-1.38,1.886-1.38
	c0.2,0,0.4,0.03,0.593,0.092l5.913,1.873l0.043-0.099c7.555,1.749,17.14,1.928,27.382,1.928c1.289,0,2.591-0.003,3.898-0.005
	l3.921-0.006c5.384,0,16.247-0.003,25.483-2.618l0.01,0.02l1.681-0.532h0.002l5.121-1.622c0.187-0.061,0.386-0.091,0.587-0.091
	c0.866,0,1.623,0.555,1.885,1.377C82.826,21.634,82.248,22.746,81.21,23.075"/>
<rect x="26.378" y="43.097" fill="#58595B" width="32.928" height="4"/>
<rect x="26.378" y="34.618" fill="#58595B" width="32.928" height="4"/>
</svg>
