<?xml version="1.0" encoding="utf-8"?>
<!-- Generator: Adobe Illustrator 23.0.0, SVG Export Plug-In . SVG Version: 6.00 Build 0)  -->
<svg version="1.1" id="圖層_1" xmlns="http://www.w3.org/2000/svg" xmlns:xlink="http://www.w3.org/1999/xlink" x="0px" y="0px"
	 viewBox="0 0 50 50" style="enable-background:new 0 0 50 50;" xml:space="preserve">
<g>
	<path d="M43,24.6H27.6l0-4l0.3-0.2c1-0.8,1.6-2.1,1.6-3.4c0-1.3-0.6-2.5-1.6-3.4l-0.2-0.1V9L28,8.9c3.9-0.9,7.4-3.5,9.3-7
		c0.2-0.4,0.2-0.9,0-1.3C37.1,0.2,36.7,0,36.2,0H13.8c-0.5,0-0.9,0.2-1.1,0.6c-0.2,0.4-0.2,0.9,0,1.3c1.9,3.5,5.4,6.1,9.3,7L22.4,9
		l0,4.3l-0.3,0.2c-1,0.8-1.6,2.1-1.6,3.4c0,1.3,0.6,2.6,1.6,3.4l0.2,0.1v4.1H7c-2.3,0-4.2,1.9-4.2,4.2v16.9C2.8,48.1,4.7,50,7,50H43
		c2.3,0,4.2-1.9,4.2-4.2V28.8C47.2,26.5,45.3,24.6,43,24.6z M35.9,1.6l-0.7,0.9C32.8,5.8,29,7.7,25,7.7c-0.6,0-1.1,0-1.7-0.1
		c-3.4-0.5-6.5-2.3-8.5-5.1l-0.7-0.9H35.9z M26,12.7l-0.6-0.1c-0.1,0-0.2,0-0.4,0c-0.1,0-0.2,0-0.4,0L24,12.7V9.2l1,0l1,0V12.7z
		 M23.6,14.5c0.4-0.2,0.9-0.4,1.4-0.4c0.5,0,1,0.1,1.4,0.4c0.9,0.5,1.4,1.4,1.4,2.5c0,1-0.5,2-1.4,2.5c-0.4,0.2-0.9,0.4-1.4,0.4
		c-0.5,0-1-0.1-1.4-0.4c-0.9-0.5-1.4-1.4-1.4-2.5C22.2,15.9,22.7,15,23.6,14.5z M24,21.3l0.6,0.1c0.1,0,0.2,0,0.4,0
		c0.1,0,0.2,0,0.4,0l0.6-0.1v3.3h-2V21.3z M4.4,28.8c0-1.5,1.2-2.7,2.7-2.7H43c1.5,0,2.7,1.2,2.7,2.7v16.9c0,1.5-1.2,2.7-2.7,2.7H7
		c-1.5,0-2.7-1.2-2.7-2.7V28.8z"/>
	<path d="M32.4,46.2c4.9,0,8.9-4,8.9-8.9s-4-8.9-8.9-8.9s-8.9,4-8.9,8.9S27.5,46.2,32.4,46.2z M32.4,30c4,0,7.3,3.3,7.3,7.3
		s-3.3,7.3-7.3,7.3s-7.3-3.3-7.3-7.3S28.4,30,32.4,30z"/>
	<path d="M32.4,42.9c3.1,0,5.6-2.5,5.6-5.6c0-3.1-2.5-5.6-5.6-5.6c-3.1,0-5.6,2.5-5.6,5.6C26.8,40.4,29.3,42.9,32.4,42.9z
		 M32.4,33.2c2.2,0,4.1,1.8,4.1,4.1s-1.8,4.1-4.1,4.1s-4.1-1.8-4.1-4.1S30.2,33.2,32.4,33.2z"/>
	<path d="M30.8,38.1c0.4,0,0.8-0.3,0.8-0.8c0-0.4,0.4-0.8,0.8-0.8c0.4,0,0.8-0.3,0.8-0.8c0-0.4-0.3-0.8-0.8-0.8
		c-1.3,0-2.4,1.1-2.4,2.4C30.1,37.7,30.4,38.1,30.8,38.1z"/>
	<path d="M11.1,36.2h6.5c1.3,0,2.4-1.1,2.4-2.4v-0.3c0-1.3-1.1-2.4-2.4-2.4h-6.5c-1.3,0-2.4,1.1-2.4,2.4v0.3
		C8.7,35.1,9.8,36.2,11.1,36.2z M18.5,33.7c0,0.5-0.4,0.9-0.9,0.9h-6.5c-0.5,0-0.9-0.4-0.9-0.9v-0.3c0-0.5,0.4-0.9,0.9-0.9h6.5
		c0.5,0,0.9,0.4,0.9,0.9V33.7z"/>
</g>
</svg>
