<svg xmlns="http://www.w3.org/2000/svg" width="100" height="100" viewBox="0 0 100 100">
  <path d="M50 23.992c-14.113 0-25.806 11.492-25.806 25.807 0 14.315 11.492 25.807 25.806 25.807 14.315 0 25.807-11.693 25.807-25.807 0-14.113-11.694-25.807-25.807-25.807zm0 42.338c-9.073 0-16.532-7.459-16.532-16.532 0-9.072 7.459-16.532 16.532-16.532 9.072 0 16.532 7.46 16.532 16.532 0 9.073-7.46 16.532-16.532 16.532z"/>
  <circle cx="76.814" cy="23.387" r="5.846"/>
  <path d="M91.936 8.266C86.693 2.822 79.233 0 70.767 0H29.234C11.693 0 0 11.693 0 29.233v41.331c0 8.668 2.823 16.129 8.468 21.572C13.912 97.379 21.169 100 29.436 100h41.129c8.669 0 15.928-2.822 21.169-7.863C97.178 86.895 100 79.436 100 70.766V29.233c0-8.467-2.822-15.725-8.064-20.967zm-.806 62.5c0 6.25-2.219 11.291-5.848 14.719-3.629 3.426-8.67 5.24-14.718 5.24H29.436c-6.048 0-11.088-1.814-14.718-5.24-3.629-3.629-5.443-8.67-5.443-14.92V29.233c0-6.048 1.814-11.088 5.443-14.717 3.428-3.427 8.669-5.242 14.718-5.242h41.533c6.048 0 11.087 1.814 14.717 5.443 3.428 3.629 5.444 8.669 5.444 14.516v41.533z"/>
</svg>
