<?xml version="1.0" encoding="utf-8"?>
<!-- Generator: Adobe Illustrator 23.0.0, SVG Export Plug-In . SVG Version: 6.00 Build 0)  -->
<svg version="1.1" id="圖層_1" xmlns="http://www.w3.org/2000/svg" xmlns:xlink="http://www.w3.org/1999/xlink" x="0px" y="0px"
	 viewBox="0 0 50 50" style="enable-background:new 0 0 50 50;" xml:space="preserve">
<g>
	<g>
		<path d="M33.8,29.1c-0.5,0-0.8-0.4-0.8-0.8v-22c0-0.5,0.4-0.8,0.8-0.8c0.5,0,0.8,0.4,0.8,0.8v22C34.6,28.8,34.2,29.1,33.8,29.1z"
			/>
	</g>
	<g>
		<path d="M33.8,50H1.9c-0.5,0-0.8-0.4-0.8-0.8v-44C1.1,2.3,3.4,0,6.3,0c0.5,0,0.8,0.4,0.8,0.8S6.8,1.6,6.3,1.6
			c-2,0-3.6,1.6-3.6,3.6v43.1H33V34.9c0-0.5,0.4-0.8,0.8-0.8c0.5,0,0.8,0.4,0.8,0.8v14.3C34.6,49.6,34.2,50,33.8,50z"/>
	</g>
	<g>
		<path d="M40.4,7.1H10.7c-0.5,0-0.8-0.4-0.8-0.8V5.2c0-2-1.6-3.6-3.6-3.6c-0.5,0-0.8-0.4-0.8-0.8S5.9,0,6.3,0H36
			c2.9,0,5.2,2.3,5.2,5.2v1.1C41.2,6.8,40.8,7.1,40.4,7.1z M11.5,5.5h28V5.2c0-2-1.6-3.6-3.6-3.6H10.1c0.9,0.9,1.4,2.2,1.4,3.6V5.5z
			"/>
	</g>
	<g>
		<path d="M28.3,15.9H11.8c-0.5,0-0.8-0.4-0.8-0.8c0-0.5,0.4-0.8,0.8-0.8h16.5c0.5,0,0.8,0.4,0.8,0.8C29.1,15.6,28.8,15.9,28.3,15.9
			z"/>
	</g>
	<g>
		<path d="M28.3,21.4H11.8c-0.5,0-0.8-0.4-0.8-0.8c0-0.5,0.4-0.8,0.8-0.8h16.5c0.5,0,0.8,0.4,0.8,0.8C29.1,21.1,28.8,21.4,28.3,21.4
			z"/>
	</g>
	<g>
		<path d="M28.3,26.9H11.8c-0.5,0-0.8-0.4-0.8-0.8s0.4-0.8,0.8-0.8h16.5c0.5,0,0.8,0.4,0.8,0.8S28.8,26.9,28.3,26.9z"/>
	</g>
	<g>
		<path d="M9.6,15.9H7.4c-0.5,0-0.8-0.4-0.8-0.8c0-0.5,0.4-0.8,0.8-0.8h2.2c0.5,0,0.8,0.4,0.8,0.8C10.4,15.6,10.1,15.9,9.6,15.9z"/>
	</g>
	<g>
		<path d="M9.6,21.4H7.4c-0.5,0-0.8-0.4-0.8-0.8c0-0.5,0.4-0.8,0.8-0.8h2.2c0.5,0,0.8,0.4,0.8,0.8C10.4,21.1,10.1,21.4,9.6,21.4z"/>
	</g>
	<g>
		<path d="M9.6,26.9H7.4c-0.5,0-0.8-0.4-0.8-0.8s0.4-0.8,0.8-0.8h2.2c0.5,0,0.8,0.4,0.8,0.8S10.1,26.9,9.6,26.9z"/>
	</g>
	<g>
		<path d="M22.8,43.4c-0.2,0-0.4-0.1-0.6-0.2C22,43,21.9,42.7,22,42.4l1.1-4.4c0-0.1,0.1-0.3,0.2-0.4l20.9-20.9
			c0.3-0.3,0.8-0.3,1.2,0l3.3,3.3c0.2,0.2,0.2,0.4,0.2,0.6s-0.1,0.4-0.2,0.6L27.8,42.1c-0.1,0.1-0.2,0.2-0.4,0.2L23,43.4
			C22.9,43.4,22.9,43.4,22.8,43.4z M27.2,41.5L27.2,41.5L27.2,41.5z M24.6,38.6l-0.7,2.8l2.8-0.7l20.1-20.1l-2.1-2.1L24.6,38.6z"/>
	</g>
	<g>
		<path d="M11.8,44.5c-0.2,0-0.4-0.1-0.6-0.2l-0.9-0.9H8.5c-0.5,0-0.8-0.4-0.8-0.8v-1.9l-0.9-0.9c-0.3-0.3-0.3-0.8,0-1.2l0.9-0.9V36
			c0-0.5,0.4-0.8,0.8-0.8h1.9l0.9-0.9c0.3-0.3,0.8-0.3,1.2,0l0.9,0.9h1.9c0.5,0,0.8,0.4,0.8,0.8v1.9l0.9,0.9c0.3,0.3,0.3,0.8,0,1.2
			l-0.9,0.9v1.9c0,0.5-0.4,0.8-0.8,0.8h-1.9l-0.9,0.9C12.2,44.4,12,44.5,11.8,44.5z M9.3,41.8h1.4c0.2,0,0.4,0.1,0.6,0.2l0.5,0.5
			l0.5-0.5c0.2-0.2,0.4-0.2,0.6-0.2h1.4v-1.4c0-0.2,0.1-0.4,0.2-0.6l0.5-0.5l-0.5-0.5c-0.2-0.2-0.2-0.4-0.2-0.6v-1.4h-1.4
			c-0.2,0-0.4-0.1-0.6-0.2l-0.5-0.5l-0.5,0.5c-0.2,0.2-0.4,0.2-0.6,0.2H9.3v1.4c0,0.2-0.1,0.4-0.2,0.6l-0.5,0.5l0.5,0.5
			c0.2,0.2,0.2,0.4,0.2,0.6V41.8z"/>
	</g>
</g>
</svg>
