<?xml version="1.0" encoding="utf-8"?>
<!-- Generator: Adobe Illustrator 23.0.0, SVG Export Plug-In . SVG Version: 6.00 Build 0)  -->
<svg version="1.1" id="圖層_1" xmlns="http://www.w3.org/2000/svg" xmlns:xlink="http://www.w3.org/1999/xlink" x="0px" y="0px"
	 viewBox="0 0 50 50" style="enable-background:new 0 0 50 50;" xml:space="preserve">
<style type="text/css">
	.st0{fill-rule:evenodd;clip-rule:evenodd;}
</style>
<g id="Page-1">
	<g id="icon-6-mail-envelope-closed">
		<path id="mail-envelope-closed" class="st0" d="M2.6,11.5C2.2,11.9,2,12.4,2,13v24c0,0.6,0.2,1.1,0.6,1.5l0,0L18.1,25L2.6,11.5
			L2.6,11.5L2.6,11.5z M47.4,11.5c0.4,0.4,0.6,0.9,0.6,1.5v24c0,0.6-0.2,1.1-0.6,1.5L31.9,25L47.4,11.5L47.4,11.5z M30.4,26.3L45,39
			H5l14.6-12.7L25,31L30.4,26.3L30.4,26.3z M4,9c-2.2,0-4,1.8-4,4v24c0,2.2,1.8,4,4,4h42c2.2,0,4-1.8,4-4V13c0-2.2-1.8-4-4-4H4L4,9z
			 M25,28.4L45,11H5L25,28.4L25,28.4z"/>
	</g>
</g>
</svg>
