<?xml version="1.0" encoding="utf-8"?>
<!-- Generator: Adobe Illustrator 23.0.0, SVG Export Plug-In . SVG Version: 6.00 Build 0)  -->
<svg version="1.1" id="圖層_1" xmlns="http://www.w3.org/2000/svg" xmlns:xlink="http://www.w3.org/1999/xlink" x="0px" y="0px"
	 viewBox="0 0 50 50" style="enable-background:new 0 0 50 50;" xml:space="preserve">
<g>
	<path d="M49.8,23.4c-0.8-1.1-2.9-2-5.2-1.4c-2.3,0.5-3.5,2.1-4.8,4.6l-4,2.1c-0.7-0.7-1.7-1.2-3.1-1.2l-5.8,0
		c-0.2,0-0.8-0.5-1.1-0.7c-0.9-0.7-1.9-1.5-3-1.5h-5.5c-1.7,0-3.8,1.3-5,2.4l-3.8,3.8l-1.6-1.6c-0.3-0.3-0.8-0.3-1.2,0l-5.5,5.5
		c-0.3,0.3-0.3,0.8,0,1.2l13.2,13.2c0.2,0.2,0.4,0.2,0.6,0.2s0.4-0.1,0.6-0.2l5.5-5.5c0.3-0.3,0.3-0.8,0-1.2l-1.6-1.6
		c0.2-0.2,0.5-0.3,1-0.3h15.4c1.9,0,9.3-7.9,9.4-8c0.9-1,4.6-6.5,5.6-9C50,24,50,23.6,49.8,23.4z M14,48L2,36l4.3-4.3l12,12L14,48z
		 M43.1,32.1c-1.4,1.5-7.1,7.1-8.2,7.4H19.5c-1.1,0-1.8,0.4-2.2,0.8l-7.6-7.6l3.8-3.8c1-1,2.7-2,3.8-2h5.5c0.5,0,1.3,0.6,2,1.1
		c0.8,0.6,1.4,1.1,2.1,1.1h5.8c0.8,0,1.4,0.2,1.9,0.6c0,0.2,0,0.3,0.1,0.5c0.1,0.2,0.3,0.3,0.5,0.4c0,0.1,0.1,0.3,0.1,0.4
		c0,1-0.8,1.9-2.5,1.9h-8.8c-0.5,0-0.8,0.4-0.8,0.8c0,0.5,0.4,0.8,0.8,0.8h8.8c2.7,0,4.1-1.8,4.1-3.6c0-0.3-0.1-0.7-0.2-1l4.1-2.1
		c0.2-0.1,0.3-0.2,0.4-0.4c1.3-2.6,2.3-3.6,3.8-4c1.4-0.3,2.6,0,3.2,0.5C47,26.5,43.8,31.3,43.1,32.1z"/>
	<path d="M6.9,35.4c-0.3-0.3-0.8-0.3-1.2,0c-0.3,0.3-0.3,0.8,0,1.2l2.2,2.2C8.1,38.9,8.3,39,8.5,39s0.4-0.1,0.6-0.2
		c0.3-0.3,0.3-0.8,0-1.2L6.9,35.4z"/>
	<path d="M22.3,15.9h5.3c0.5,0,0.8-0.4,0.8-0.8s-0.4-0.8-0.8-0.8h-5.3c-0.5,0-0.8,0.4-0.8,0.8S21.9,15.9,22.3,15.9z"/>
	<path d="M8.4,9.7l1.5,0.5v0.2c-0.7,0.8-1.1,1.9-1.1,3v1.7c0,1,0.4,2,1.1,2.8v2.7c0,1.1,0.9,1.9,1.9,1.9h4.4c1.1,0,1.9-0.9,1.9-1.9
		v-1.4h13.7v1.4c0,1.1,0.9,1.9,1.9,1.9h4.4c1.1,0,1.9-0.9,1.9-1.9v-2.7c0.7-0.8,1.1-1.8,1.1-2.8v-1.7c0-1.1-0.4-2.2-1.1-3v-0.2
		l1.5-0.5c1-0.1,1.8-0.9,1.8-1.9V6.3c0-1.1-0.9-1.9-1.9-1.9h-3.3c-0.4,0-0.7,0.2-1.4,0.9c-0.1,0.1-0.2,0.1-0.2,0.2l-1.2-2.7
		C34.8,1.1,33.2,0,31.4,0H18.6c-1.8,0-3.3,1.1-3.9,2.7l-1.2,2.7c-0.1-0.1-0.2-0.1-0.2-0.2c-0.8-0.7-1-0.9-1.4-0.9H8.5
		c-1.1,0-1.9,0.9-1.9,1.9v1.5C6.6,8.8,7.4,9.6,8.4,9.7z M16.2,20.9h-4.4c-0.2,0-0.3-0.1-0.3-0.3v-1.4h4.9v1.4
		C16.5,20.8,16.4,20.9,16.2,20.9z M38.2,20.9h-4.4c-0.2,0-0.3-0.1-0.3-0.3v-1.4h4.9v1.4C38.5,20.8,38.3,20.9,38.2,20.9z M16.2,3.3
		c0.3-1,1.3-1.7,2.3-1.7h12.8c1.1,0,2,0.7,2.4,1.8l1.4,3.1c-0.8,0.6-1.8,1.2-2.5,1.2H17.3c-0.7,0-1.6-0.5-2.5-1.2L16.2,3.3z
		 M8.2,6.3C8.2,6.2,8.4,6,8.5,6h3.1c0.1,0.1,0.4,0.3,0.6,0.5c1.2,1.1,3.3,2.8,5.1,2.8h15.4c1.8,0,3.9-1.8,5.1-2.8
		C38,6.4,38.3,6.2,38.4,6h3.1c0.2,0,0.3,0.1,0.3,0.3v1.5c0,0.2-0.1,0.3-0.3,0.3c-0.1,0-0.2,0-0.3,0L39,8.8c-0.3,0.1-0.6,0.4-0.6,0.8
		v1.1c0,0.2,0.1,0.4,0.2,0.6c0.5,0.5,0.9,1.3,0.9,2.1v1.7c0,0.7-0.3,1.3-0.8,1.8c-0.2,0.2-0.3,0.4-0.3,0.6v0h-5.8h-0.3H17.3
		c-0.1,0-0.1,0-0.2,0c-0.1,0-0.1,0-0.2,0h-5.5v0c0-0.2-0.1-0.5-0.3-0.6c-0.5-0.5-0.8-1.1-0.8-1.8v-1.7c0-0.8,0.3-1.5,0.9-2.1
		c0.2-0.2,0.2-0.4,0.2-0.6V9.6c0-0.4-0.2-0.7-0.6-0.8L8.8,8.1c-0.1,0-0.2,0-0.3,0c-0.2,0-0.3-0.1-0.3-0.3V6.3z"/>
	<path d="M18.4,13.7c0.5,0,0.8-0.4,0.8-0.8c0-0.5-0.4-0.8-0.8-0.8c-0.9,0-1.9-0.3-2.6-0.9c-0.3-0.3-0.9-0.3-1.2,0.1
		c-0.3,0.3-0.3,0.9,0.1,1.2C15.7,13.3,17.1,13.7,18.4,13.7z"/>
	<path d="M31.6,13.7c1.3,0,2.7-0.5,3.6-1.3c0.3-0.3,0.4-0.8,0.1-1.2c-0.3-0.3-0.8-0.4-1.2-0.1c-0.7,0.6-1.6,0.9-2.6,0.9
		c-0.5,0-0.8,0.4-0.8,0.8C30.8,13.4,31.1,13.7,31.6,13.7z"/>
</g>
</svg>
