<?xml version="1.0" encoding="utf-8"?>
<!-- Generator: Adobe Illustrator 23.0.0, SVG Export Plug-In . SVG Version: 6.00 Build 0)  -->
<svg version="1.1" id="圖層_1" xmlns="http://www.w3.org/2000/svg" xmlns:xlink="http://www.w3.org/1999/xlink" x="0px" y="0px"
	 viewBox="0 0 86.6 86.6" style="enable-background:new 0 0 86.6 86.6;" xml:space="preserve">
<path d="M43.3,85.8c-5.7,0-11.3-1.1-16.5-3.3c-5.1-2.1-9.6-5.2-13.5-9.1c-3.9-3.9-7-8.4-9.1-13.5C1.9,54.6,0.8,49,0.8,43.3
	S1.9,32,4.1,26.8c2.1-5.1,5.2-9.6,9.1-13.5c3.9-3.9,8.4-7,13.5-9.1C32,1.9,37.6,0.8,43.3,0.8s11.3,1.1,16.5,3.3
	c5.1,2.1,9.6,5.2,13.5,9.1c3.9,3.9,7,8.4,9.1,13.5c2.2,5.2,3.3,10.8,3.3,16.5s-1.1,11.3-3.3,16.5c-2.1,5.1-5.2,9.6-9.1,13.5
	c-3.9,3.9-8.4,7-13.5,9.1C54.6,84.7,49,85.8,43.3,85.8z M43.3,2C20.6,2,2,20.6,2,43.3s18.5,41.3,41.3,41.3S84.6,66,84.6,43.3
	S66,2,43.3,2z"/>
<g>
	<path d="M46,29.1h7.6c0.3,0,0.6-0.3,0.6-0.6s-0.3-0.6-0.6-0.6H46c-0.3,0-0.6,0.3-0.6,0.6S45.6,29.1,46,29.1z"/>
	<path d="M46,32.8h7.6c0.3,0,0.6-0.3,0.6-0.6c0-0.3-0.3-0.6-0.6-0.6H46c-0.3,0-0.6,0.3-0.6,0.6C45.4,32.5,45.6,32.8,46,32.8z"/>
	<path d="M46,36.5h7.6c0.3,0,0.6-0.3,0.6-0.6s-0.3-0.6-0.6-0.6H46c-0.3,0-0.6,0.3-0.6,0.6S45.6,36.5,46,36.5z"/>
	<path d="M46,40.2h7.6c0.3,0,0.6-0.3,0.6-0.6S53.8,39,53.5,39H46c-0.3,0-0.6,0.3-0.6,0.6S45.6,40.2,46,40.2z"/>
	<path d="M53.5,42.7h-14c-0.3,0-0.6,0.3-0.6,0.6c0,0.3,0.3,0.6,0.6,0.6h14c0.3,0,0.6-0.3,0.6-0.6C54.1,43,53.8,42.7,53.5,42.7z"/>
	<path d="M53.5,46.4h-14c-0.3,0-0.6,0.3-0.6,0.6s0.3,0.6,0.6,0.6h14c0.3,0,0.6-0.3,0.6-0.6S53.8,46.4,53.5,46.4z"/>
	<path d="M53.5,50.1h-14c-0.3,0-0.6,0.3-0.6,0.6s0.3,0.6,0.6,0.6h14c0.3,0,0.6-0.3,0.6-0.6S53.8,50.1,53.5,50.1z"/>
	<path d="M53.5,53.8h-14c-0.3,0-0.6,0.3-0.6,0.6s0.3,0.6,0.6,0.6h14c0.3,0,0.6-0.3,0.6-0.6S53.8,53.8,53.5,53.8z"/>
	<path d="M52.3,57.5H39.5c-0.3,0-0.6,0.3-0.6,0.6s0.3,0.6,0.6,0.6h12.8c0.3,0,0.6-0.3,0.6-0.6S52.6,57.5,52.3,57.5z"/>
	<path d="M61.7,28.8h-4.1v-4c0-0.9-0.7-1.6-1.6-1.6H24.9c-0.9,0-1.6,0.7-1.6,1.6V60c0,1.9,1.5,3.3,3.4,3.3h32.6c0.1,0,0.1,0,0.2,0
		c0.2,0,0.3,0,0.5,0c2.5,0,3.4-2.1,3.5-3.3c0,0,0,0,0-0.1V30.5C63.4,29.6,62.6,28.8,61.7,28.8z M59.9,62.2c-1.3,0-2.3-1-2.3-2.2
		c0-0.1,0-0.2-0.1-0.2c0,0,0,0,0-0.1V30h4.1c0.3,0,0.5,0.2,0.5,0.5l0,29.5C62.2,60.2,61.9,62.2,59.9,62.2z M24.4,24.9
		c0-0.2,0.2-0.5,0.5-0.5H56c0.3,0,0.5,0.2,0.5,0.5v4.5v30.4c0,0.1,0,0.2,0.1,0.2c0,0,0,0,0,0.1c0,0.8,0.3,1.6,0.8,2.2H26.6
		c-1.3,0-2.3-1-2.3-2.2V24.9z"/>
	<path d="M28.8,40.3h13c0.9,0,1.7-0.8,1.7-1.7v-9c0-0.9-0.8-1.7-1.7-1.7h-13c-0.9,0-1.7,0.8-1.7,1.7v9
		C27.1,39.6,27.9,40.3,28.8,40.3z M42.3,38.7c0,0.3-0.2,0.5-0.5,0.5h-13c-0.3,0-0.5-0.2-0.5-0.5v-9c0-0.3,0.2-0.5,0.5-0.5h13
		c0.3,0,0.5,0.2,0.5,0.5V38.7z"/>
	<path d="M28.8,58.6h5.6c0.9,0,1.7-0.8,1.7-1.7V44.4c0-0.9-0.8-1.7-1.7-1.7h-5.6c-0.9,0-1.7,0.8-1.7,1.7v12.5
		C27.1,57.9,27.9,58.6,28.8,58.6z M34.9,56.9c0,0.3-0.2,0.5-0.5,0.5h-5.6c-0.3,0-0.5-0.2-0.5-0.5V44.4c0-0.3,0.2-0.5,0.5-0.5h5.6
		c0.3,0,0.5,0.2,0.5,0.5V56.9z"/>
</g>
</svg>
