<?xml version="1.0" encoding="utf-8"?>
<!-- Generator: Adobe Illustrator 16.0.0, SVG Export Plug-In . SVG Version: 6.00 Build 0)  -->
<!DOCTYPE svg PUBLIC "-//W3C//DTD SVG 1.1//EN" "http://www.w3.org/Graphics/SVG/1.1/DTD/svg11.dtd">
<svg version="1.1" id="圖層_1" xmlns="http://www.w3.org/2000/svg" xmlns:xlink="http://www.w3.org/1999/xlink" x="0px" y="0px"
	 width="65.518px" height="65.518px" viewBox="0 0 65.518 65.518" enable-background="new 0 0 65.518 65.518" xml:space="preserve">
<path fill="#FFFFFF" d="M62.943,20.007c-1.653-3.905-4.015-7.408-7.02-10.411c-3.009-3.008-6.513-5.371-10.414-7.021
	C41.469,0.866,37.18,0,32.759,0s-8.71,0.866-12.751,2.575c-3.9,1.65-7.404,4.013-10.414,7.021c-3.007,3.006-5.369,6.509-7.02,10.411
	C0.866,24.046,0,28.337,0,32.759c0,4.422,0.866,8.712,2.574,12.752c1.65,3.901,4.012,7.404,7.02,10.412
	c3.013,3.011,6.517,5.372,10.414,7.02c4.041,1.709,8.331,2.576,12.751,2.576s8.71-0.867,12.75-2.576
	c3.898-1.647,7.402-4.01,10.414-7.02c3.006-3.005,5.367-6.509,7.02-10.412c1.708-4.041,2.574-8.332,2.574-12.752
	C65.518,28.338,64.651,24.048,62.943,20.007z M64.26,32.759c0,17.37-14.131,31.501-31.5,31.501
	c-17.37,0-31.502-14.131-31.502-31.501S15.389,1.257,32.759,1.257C50.129,1.257,64.26,15.389,64.26,32.759z"/>
<path fill="#FFFFFF" d="M33.023,26.747h5.797c0.326,0,0.592-0.265,0.592-0.591s-0.266-0.591-0.592-0.591h-5.797
	c-0.325,0-0.589,0.265-0.589,0.591S32.698,26.747,33.023,26.747z"/>
<path fill="#FFFFFF" d="M38.82,28.399h-5.797c-0.325,0-0.589,0.265-0.589,0.591s0.264,0.591,0.589,0.591h5.797
	c0.326,0,0.592-0.265,0.592-0.591S39.146,28.399,38.82,28.399z"/>
<path fill="#FFFFFF" d="M38.82,31.234h-5.797c-0.325,0-0.589,0.265-0.589,0.591s0.264,0.591,0.589,0.591h5.797
	c0.326,0,0.592-0.265,0.592-0.591S39.146,31.234,38.82,31.234z"/>
<path fill="#FFFFFF" d="M38.82,34.068H28.043c-0.327,0-0.592,0.266-0.592,0.592c0,0.325,0.266,0.591,0.592,0.591H38.82
	c0.326,0,0.592-0.266,0.592-0.591C39.412,34.333,39.146,34.068,38.82,34.068z"/>
<path fill="#FFFFFF" d="M38.82,36.902H28.043c-0.327,0-0.592,0.266-0.592,0.592c0,0.325,0.266,0.591,0.592,0.591H38.82
	c0.326,0,0.592-0.266,0.592-0.591C39.412,37.167,39.146,36.902,38.82,36.902z"/>
<path fill="#FFFFFF" d="M38.82,39.737H28.043c-0.327,0-0.592,0.266-0.592,0.591c0,0.326,0.266,0.592,0.592,0.592H38.82
	c0.326,0,0.592-0.266,0.592-0.592C39.412,40.002,39.146,39.737,38.82,39.737z"/>
<path fill="#FFFFFF" d="M38.82,42.571H28.043c-0.327,0-0.592,0.266-0.592,0.592c0,0.325,0.266,0.591,0.592,0.591H38.82
	c0.326,0,0.592-0.266,0.592-0.591C39.412,42.836,39.146,42.571,38.82,42.571z"/>
<path fill="#FFFFFF" d="M37.854,45.406h-9.813c-0.326,0-0.591,0.266-0.591,0.591c0,0.326,0.265,0.592,0.591,0.592h9.813
	c0.326,0,0.592-0.266,0.592-0.592C38.446,45.671,38.181,45.406,37.854,45.406z"/>
<path fill="#FFFFFF" d="M19.84,32.551h9.94c0.796,0,1.444-0.647,1.444-1.444v-6.933c0-0.796-0.647-1.443-1.444-1.443h-9.94
	c-0.796,0-1.444,0.647-1.444,1.443v6.933C18.396,31.904,19.044,32.551,19.84,32.551z M30.042,31.107
	c0,0.144-0.118,0.261-0.262,0.261h-9.94c-0.144,0-0.261-0.117-0.261-0.261v-6.933c0-0.145,0.117-0.262,0.261-0.262h9.94
	c0.145,0,0.262,0.118,0.262,0.262V31.107z"/>
<path fill="#FFFFFF" d="M24.128,34.101H19.84c-0.796,0-1.444,0.648-1.444,1.444v9.599c0,0.796,0.647,1.443,1.444,1.443h4.288
	c0.796,0,1.443-0.647,1.443-1.443v-9.599C25.571,34.75,24.924,34.101,24.128,34.101z M19.58,35.545c0-0.145,0.117-0.262,0.261-0.262
	h4.288c0.144,0,0.261,0.117,0.261,0.262v9.599c0,0.145-0.117,0.262-0.261,0.262H19.84c-0.144,0-0.261-0.117-0.261-0.262V35.545z"/>
<path fill="#FFFFFF" d="M44.654,13.213c-3.431,0-6.354,2.534-6.861,5.915h-20.95c-0.765,0-1.41,0.636-1.41,1.389V47.51
	c0,1.518,1.212,2.707,2.759,2.707h25.021c0.059,0,0.11-0.011,0.152-0.022c0.113,0.013,0.227,0.022,0.342,0.022
	c2.006,0,2.719-1.736,2.814-2.65c0.003-0.021,0.005-0.044,0.005-0.065v-20.66c2.991-0.839,5.075-3.564,5.075-6.682
	C51.602,16.329,48.484,13.213,44.654,13.213z M45.345,47.45c-0.021,0.162-0.234,1.584-1.638,1.584c-0.892,0-1.589-0.673-1.589-1.532
	c0-0.066-0.013-0.134-0.038-0.204l0.001-20.696c0.82,0.33,1.684,0.504,2.573,0.504c0.223,0,0.456-0.02,0.688-0.043L45.345,47.45z
	 M42.001,25.281c-0.305-0.158-0.594-0.342-0.859-0.548c-1.436-1.105-2.258-2.772-2.258-4.573c0-0.284,0.021-0.573,0.064-0.859
	c0.42-2.801,2.873-4.913,5.706-4.913c3.183,0,5.771,2.589,5.771,5.772c0,2.518-1.683,4.789-4.094,5.522
	c-0.277,0.084-0.566,0.148-0.86,0.19C44.275,26.042,43.055,25.831,42.001,25.281z M33.023,22.731c-0.325,0-0.589,0.265-0.589,0.591
	s0.264,0.591,0.589,0.591h5.797c0.534,0.829,1.249,1.545,2.079,2.081v21.286c0,0.07,0.013,0.139,0.036,0.202l-0.001,0.021
	c0,0.553,0.167,1.087,0.474,1.532H18.191c-0.884,0-1.577-0.669-1.577-1.523V20.516c0-0.104,0.113-0.207,0.228-0.207h20.873
	c0.018,0.837,0.186,1.649,0.496,2.422H33.023z"/>
<path fill="#FFFFFF" d="M44.655,17.111c-1.371,0-2.066,1.033-2.066,3.071c0,2.017,0.695,3.04,2.066,3.04s2.067-1.023,2.067-3.04
	C46.723,18.145,46.026,17.111,44.655,17.111z M45.525,20.174c0,1.401-0.235,1.922-0.87,1.922c-0.63,0-0.863-0.521-0.863-1.922
	c0-1.412,0.233-1.937,0.863-1.937C45.29,18.237,45.525,18.762,45.525,20.174z"/>
</svg>
