<?xml version="1.0" encoding="utf-8"?>
<!-- Generator: Adobe Illustrator 23.0.0, SVG Export Plug-In . SVG Version: 6.00 Build 0)  -->
<svg version="1.1" id="圖層_1" xmlns="http://www.w3.org/2000/svg" xmlns:xlink="http://www.w3.org/1999/xlink" x="0px" y="0px"
	 viewBox="0 0 50 50" style="enable-background:new 0 0 50 50;" xml:space="preserve">
<g>
	<g>
		<path d="M25,7.3c9.8,0,17.7,8,17.7,17.7s-8,17.7-17.7,17.7S7.3,34.8,7.3,25S15.2,7.3,25,7.3 M25,4.3C13.6,4.3,4.3,13.6,4.3,25
			S13.6,45.7,25,45.7c11.4,0,20.7-9.3,20.7-20.7S36.4,4.3,25,4.3L25,4.3z"/>
	</g>
	<g>
		<g>
			<path d="M25,37.6c-0.8,0-1.5-0.7-1.5-1.5V22.5c0-0.8,0.7-1.5,1.5-1.5s1.5,0.7,1.5,1.5v13.5C26.5,36.9,25.8,37.6,25,37.6z"/>
		</g>
		<g>
			<circle cx="25" cy="16.4" r="2.5"/>
		</g>
	</g>
</g>
</svg>
