<?xml version="1.0" encoding="utf-8"?>
<!-- Generator: Adobe Illustrator 16.0.0, SVG Export Plug-In . SVG Version: 6.00 Build 0)  -->
<!DOCTYPE svg PUBLIC "-//W3C//DTD SVG 1.1//EN" "http://www.w3.org/Graphics/SVG/1.1/DTD/svg11.dtd">
<svg version="1.1" id="圖層_1" xmlns="http://www.w3.org/2000/svg" xmlns:xlink="http://www.w3.org/1999/xlink" x="0px" y="0px"
	 width="34.15px" height="34.15px" viewBox="-0.152 0.002 34.15 34.15" enable-background="new -0.152 0.002 34.15 34.15"
	 xml:space="preserve">
<path d="M32.688,21.664c-0.478-0.243-1.393-0.479-2.742,0.122c-0.08-0.472-0.307-0.873-0.672-1.165
	c-0.822-0.658-2.115-0.545-3.399,0.291c-0.166-0.305-0.385-0.495-0.584-0.613c-0.744-0.444-1.847-0.279-3.277,0.48l-4.401,2.342
	c-0.143,0.075-0.237,0.197-0.301,0.332c-1.292-0.155-2.268-0.617-4.408-2.204l-2.907-2.152c-0.88-0.652-2.716-0.697-4.18-0.104
	L0.45,21.173c-0.369,0.149-0.546,0.569-0.396,0.938c0.149,0.367,0.567,0.547,0.938,0.396l5.366-2.181
	c1.205-0.488,2.469-0.305,2.78-0.074l2.906,2.153c3.393,2.514,4.399,2.533,7.092,2.583c0.666,0.013,1.445,0.027,2.411,0.085
	c0.177,0.011,0.352,0.189,0.384,0.392c0.053,0.343-0.354,0.554-0.642,0.665c-3.98,1.819-6.385,1.216-10.593-0.938
	c-0.354-0.18-0.788-0.041-0.969,0.313c-0.182,0.354-0.041,0.788,0.313,0.97c2.4,1.229,4.51,2.167,6.929,2.167
	c1.468,0,3.051-0.348,4.88-1.185c1.285-0.495,1.62-1.468,1.505-2.213c-0.139-0.881-0.861-1.558-1.722-1.606
	c-0.68-0.04-1.264-0.061-1.786-0.072l2.843-1.514c1.142-0.606,1.722-0.603,1.864-0.516c0.089,0.053,0.146,0.27,0.146,0.563
	c0.001,0.267,0.149,0.511,0.386,0.634c0.236,0.124,0.521,0.106,0.741-0.044l0.742-0.51c0.87-0.597,1.548-0.642,1.807-0.434
	c0.212,0.169,0.217,0.614,0.012,1.133c-0.117,0.298-0.024,0.639,0.229,0.834c0.252,0.195,0.604,0.2,0.865,0.014
	c1.053-0.767,2.009-1.058,2.554-0.779c0.276,0.141,0.374,0.403,0.374,0.603c-0.001,0.132-0.041,0.37-0.368,0.54L20.355,31.47
	c-2.253,1.424-5.221,1.409-5.869,1.022c-0.059-0.035-0.123-0.062-0.189-0.079c-1.449-0.374-2.609-0.743-3.634-1.068
	c-2.679-0.854-4.449-1.419-7.853-0.979c-0.396,0.051-0.673,0.411-0.623,0.806c0.051,0.396,0.417,0.676,0.806,0.622
	c3.087-0.396,4.648,0.103,7.232,0.924c1.021,0.325,2.177,0.693,3.626,1.069c0.457,0.23,1.194,0.364,2.073,0.364
	c1.554,0,3.546-0.419,5.199-1.464l11.624-7.348c0.688-0.349,1.098-1.017,1.099-1.789C33.848,22.752,33.404,22.029,32.688,21.664z"/>
<path d="M16.924,18.759c5.173,0,9.381-4.207,9.381-9.378c0-5.172-4.208-9.38-9.381-9.38c-5.172,0-9.38,4.207-9.38,9.379
	S11.752,18.759,16.924,18.759z M16.924,1.44c4.379,0,7.94,3.562,7.94,7.939c0,4.377-3.563,7.939-7.94,7.939S8.985,13.757,8.985,9.38
	C8.985,5.002,12.546,1.44,16.924,1.44z"/>
<path d="M16.927,10.101c0.015,0,0.027-0.001,0.043,0c1.308,0,2.008,0.44,2.228,0.854c0.134,0.251,0.114,0.524-0.052,0.77
	c-0.286,0.419-1.059,0.813-2.391,0.665c-0.647-0.074-1.312-0.294-2.081-0.551l-0.171-0.057c-0.375-0.124-0.783,0.08-0.909,0.457
	c-0.125,0.377,0.079,0.785,0.456,0.91l0.171,0.056c0.677,0.226,1.323,0.435,1.983,0.552v1.536c0,0.397,0.322,0.721,0.72,0.721
	c0.398,0,0.721-0.323,0.721-0.721V13.83c1.188-0.078,2.165-0.521,2.691-1.294c0.469-0.688,0.519-1.531,0.134-2.254
	c-0.548-1.03-1.821-1.62-3.499-1.62c-0.009,0-0.017,0-0.023,0c-1.349-0.036-2.081-0.436-2.301-0.85
	c-0.165-0.311-0.061-0.58,0.057-0.751c0.293-0.433,1.088-0.843,2.431-0.688c0.649,0.073,1.315,0.294,2.088,0.551l0.171,0.058
	c0.379,0.126,0.785-0.079,0.91-0.457c0.125-0.377-0.079-0.785-0.457-0.91l-0.171-0.056c-0.692-0.231-1.354-0.444-2.03-0.561V3.467
	c0-0.396-0.322-0.72-0.721-0.72c-0.397,0-0.72,0.323-0.72,0.72v1.452c-1.188,0.085-2.161,0.549-2.691,1.33
	c-0.467,0.687-0.519,1.522-0.139,2.237C13.919,9.513,15.213,10.101,16.927,10.101z"/>
</svg>
