<?xml version="1.0" encoding="utf-8"?>
<!-- Generator: Adobe Illustrator 23.0.0, SVG Export Plug-In . SVG Version: 6.00 Build 0)  -->
<svg version="1.1" id="圖層_1" xmlns="http://www.w3.org/2000/svg" xmlns:xlink="http://www.w3.org/1999/xlink" x="0px" y="0px"
	 viewBox="0 0 50 50" style="enable-background:new 0 0 50 50;" xml:space="preserve">
<g>
	<path d="M25,21.4c-4,0-7.3,3-7.3,6.7s3.3,6.7,7.3,6.7c4,0,7.3-3,7.3-6.7S29,21.4,25,21.4z M25,32.8c-2.9,0-5.2-2.1-5.2-4.7
		s2.3-4.7,5.2-4.7s5.2,2.1,5.2,4.7S27.9,32.8,25,32.8z"/>
	<path d="M49.6,15.4c-1.4-1.3-9.2-7.5-24.6-7.5c-15.4,0-23.2,6.3-24.6,7.5L0,15.8l0.1,0.6c0.8,4,2.1,6.6,3.2,8.6l0.3,0.5l0.6,0
		c2,0,4.1-0.3,6.2-0.8l-5.1,7.7v9.7H25h19.7v-9.7l-5.1-7.7c2.1,0.5,4.2,0.7,6.2,0.8l0.6,0l0.3-0.5c1.2-2,2.5-4.6,3.2-8.6l0.1-0.6
		L49.6,15.4z M42.6,33.1v7H25H7.4v-7l6.1-9.1l-0.1,0c0.6-0.2,1.1-0.4,1.7-0.6l0.6-0.3v-5.3c1.2-0.5,4.2-1.7,9.3-1.7
		c5.1,0,8.2,1.1,9.3,1.7v5.3l0.6,0.3c0.5,0.2,1.1,0.4,1.7,0.6l-0.1,0L42.6,33.1z M45.2,23.4c-2.8-0.1-6.1-0.8-8.7-1.7v-5.1l-0.5-0.3
		c-0.6-0.4-4.2-2.2-10.9-2.2c-6.7,0-10.3,1.8-10.9,2.2l-0.5,0.3v5.1c-2.6,1-5.9,1.6-8.7,1.7c-0.9-1.7-1.9-3.8-2.6-6.9
		C4.2,15,11.6,10,25,10c13.4,0,20.8,5.1,22.7,6.6C47.1,19.6,46.1,21.7,45.2,23.4z"/>
</g>
</svg>
