<?xml version="1.0" encoding="utf-8"?>
<!-- Generator: Adobe Illustrator 23.0.0, SVG Export Plug-In . SVG Version: 6.00 Build 0)  -->
<svg version="1.1" id="圖層_1" xmlns="http://www.w3.org/2000/svg" xmlns:xlink="http://www.w3.org/1999/xlink" x="0px" y="0px"
	 viewBox="0 0 86.6 86.6" style="enable-background:new 0 0 86.6 86.6;" xml:space="preserve">
<path d="M43.3,85.8c-5.7,0-11.3-1.1-16.5-3.3c-5.1-2.1-9.6-5.2-13.5-9.1c-3.9-3.9-7-8.4-9.1-13.5C1.9,54.6,0.8,49,0.8,43.3
	S1.9,32,4.1,26.8c2.1-5.1,5.2-9.6,9.1-13.5c3.9-3.9,8.4-7,13.5-9.1C32,1.9,37.6,0.8,43.3,0.8s11.3,1.1,16.5,3.3
	c5.1,2.1,9.6,5.2,13.5,9.1c3.9,3.9,7,8.4,9.1,13.5c2.2,5.2,3.3,10.8,3.3,16.5s-1.1,11.3-3.3,16.5c-2.1,5.1-5.2,9.6-9.1,13.5
	c-3.9,3.9-8.4,7-13.5,9.1C54.6,84.7,49,85.8,43.3,85.8z M43.3,2C20.6,2,2,20.6,2,43.3s18.5,41.3,41.3,41.3S84.6,66,84.6,43.3
	S66,2,43.3,2z"/>
<path d="M34.5,62.3c-0.9,0-1.6-0.5-1.9-1.4l-5-13.5l-0.1,0c-1.1-0.3-1.9-1.2-1.9-2.4v-0.6h-1.2c-1.3,0-2.4-1.1-2.4-2.4v-5.8
	c0-1.3,1.1-2.4,2.4-2.4h1.2v-0.6c0-1.3,1.1-2.4,2.4-2.4h7.3c9.7-0.7,16.7-4.1,20.1-6.1c0.4-0.2,0.9-0.4,1.3-0.4
	c0.4,0,0.9,0.1,1.3,0.3c0.8,0.5,1.3,1.3,1.3,2.2v6.3l0.2,0c3,0.4,5.2,2.9,5.2,5.9s-2.2,5.5-5.2,5.9l-0.2,0v6.5
	c0,0.9-0.5,1.8-1.3,2.2c-0.4,0.2-0.8,0.3-1.3,0.3c-0.5,0-0.9-0.1-1.3-0.4c-4-2.3-11.7-6.2-18.9-6.3l-0.3,0l4.4,12.1
	c0.2,0.6,0.1,1.3-0.2,1.9c-0.4,0.6-1,0.9-1.7,0.9H34.5z M33.7,60.5c0.1,0.3,0.4,0.5,0.8,0.5h4.3c0.3,0,0.5-0.1,0.7-0.3
	c0.2-0.2,0.2-0.5,0.1-0.7l-4.6-12.5h-6L33.7,60.5z M36.3,46.2c7.6,0,15.6,4.1,19.8,6.5c0.2,0.1,0.4,0.2,0.7,0.2
	c0.2,0,0.5-0.1,0.7-0.2c0.4-0.2,0.7-0.7,0.7-1.1V26.9c0-0.5-0.3-0.9-0.7-1.2c-0.2-0.1-0.4-0.2-0.6-0.2c-0.2,0-0.5,0.1-0.7,0.2
	c-3.3,2-10.3,5.4-19.9,6.3L36,32v14.2L36.3,46.2L36.3,46.2z M28,32c-0.6,0-1.2,0.5-1.2,1.2v11.9c0,0.6,0.5,1.2,1.2,1.2h6.7V32H28z
	 M59.3,43.8l0.2,0c2.2-0.4,3.9-2.4,3.9-4.6c0-2.3-1.6-4.2-3.9-4.6l-0.2,0V43.8z M24.4,35.1c-0.6,0-1.2,0.5-1.2,1.2v5.8
	c0,0.6,0.5,1.2,1.2,1.2h1.2v-8.2H24.4z"/>
<path d="M41.7,43.9c-0.3,0-0.6-0.3-0.6-0.6s0.3-0.6,0.6-0.6h3.2c0.3,0,0.6,0.3,0.6,0.6s-0.3,0.6-0.6,0.6H41.7z"/>
<path d="M41.8,44.5c-0.3,0-0.5-0.2-0.6-0.4c-0.1-0.2,0-0.3,0-0.5c0.1-0.2,0.2-0.3,0.4-0.3l3-1.1c0.1,0,0.1,0,0.2,0
	c0.3,0,0.5,0.2,0.6,0.4c0.1,0.3-0.1,0.7-0.4,0.8l-3,1.1C41.9,44.4,41.9,44.5,41.8,44.5z"/>
<path d="M44.8,44.5c-0.1,0-0.1,0-0.2,0l-3-1.1c-0.3-0.1-0.5-0.5-0.4-0.8c0.1-0.3,0.3-0.4,0.6-0.4c0.1,0,0.1,0,0.2,0l3,1.1
	c0.3,0.1,0.5,0.5,0.4,0.8C45.3,44.3,45.1,44.5,44.8,44.5z"/>
</svg>
