<?xml version="1.0" encoding="utf-8"?>
<!-- Generator: Adobe Illustrator 23.0.0, SVG Export Plug-In . SVG Version: 6.00 Build 0)  -->
<svg version="1.1" id="圖層_1" xmlns="http://www.w3.org/2000/svg" xmlns:xlink="http://www.w3.org/1999/xlink" x="0px" y="0px"
	 viewBox="0 0 50 50" style="enable-background:new 0 0 50 50;" xml:space="preserve">
<g>
	<path d="M49.3,27.5H30.9l10.6-14V19l-1.7,3.5c0,0.1-0.1,0.2-0.1,0.3v1.8c0,0.4,0.3,0.7,0.7,0.7h3.6c0.4,0,0.7-0.3,0.7-0.7v-1.8
		c0-0.4-0.3-0.7-0.7-0.7s-0.7,0.3-0.7,0.7v1.1H41v-1l1.7-3.5c0-0.1,0.1-0.2,0.1-0.3v-7.5l0.8-1c0.5-0.6,0.7-1.4,0.6-2.2
		c-0.1-0.8-0.5-1.5-1.2-2c-1.3-0.9-3.1-0.7-4.1,0.5L23,26.2v-8.9c0-0.4-0.3-0.7-0.7-0.7h-6.5c-1.8,0-3.4,1.1-4,2.8l-2.6,7.1
		l-5.3,0.5C1.7,27.4,0,29.2,0,31.4v7.5c0,0.4,0.3,0.7,0.7,0.7h7.2c0.1,0,0.2,0,0.2,0c0.3,2.6,2.5,4.6,5.2,4.6s4.9-2,5.2-4.6
		c0.1,0,0.1,0,0.2,0h3.6h7.2c0.4,0,0.7-0.3,0.7-0.7c0-2.6,2.1-4.7,4.7-4.7h0.6c-1.8,0.8-3,2.6-3,4.7c0,2.9,2.3,5.2,5.2,5.2
		c2.9,0,5.2-2.3,5.2-5.2c0-2.1-1.2-3.9-3-4.7h3.3l1.6,4.9c0.1,0.3,0.4,0.5,0.6,0.5h3.8c0.4,0,0.7-0.3,0.7-0.7V28.1
		C50,27.8,49.7,27.5,49.3,27.5z M1.4,32.4h2.2v2.2H1.4V32.4z M13.3,42.8c-2.1,0-3.9-1.7-3.9-3.9c0-2.1,1.7-3.9,3.9-3.9
		s3.9,1.7,3.9,3.9C17.2,41.1,15.4,42.8,13.3,42.8z M21.6,38.3h-2.9c-0.1,0-0.2,0-0.2,0c-0.3-2.6-2.5-4.6-5.2-4.6s-4.9,2-5.2,4.6
		c-0.1,0-0.1,0-0.2,0H1.4V36h2.9C4.7,36,5,35.7,5,35.3v-3.6c0-0.4-0.3-0.7-0.7-0.7H1.4c0.2-1.4,1.2-2.4,2.6-2.6l5.8-0.6
		c0.3,0,0.5-0.2,0.6-0.4l2.7-7.5c0.4-1.2,1.5-1.9,2.7-1.9h5.8V38.3z M39.9,7.8c0.6-0.7,1.5-0.8,2.2-0.3c0.3,0.3,0.6,0.6,0.6,1.1
		c0.1,0.4-0.1,0.9-0.3,1.2L29.2,27.5h-5.4L39.9,7.8z M41.6,38.9c0,2.1-1.7,3.9-3.9,3.9c-2.1,0-3.9-1.7-3.9-3.9
		c0-2.1,1.7-3.9,3.9-3.9C39.9,35.1,41.6,36.8,41.6,38.9z M48.6,38.3H46l-1.6-4.9c-0.1-0.3-0.4-0.5-0.6-0.5h-8.8
		c-3.1,0-5.7,2.4-6,5.4H23v-9.5h6.5c0,0,0,0,0,0h19.1V38.3z"/>
	<path d="M14.4,20.7l-1.8,5.4c-0.1,0.2,0,0.4,0.1,0.6c0.1,0.2,0.3,0.3,0.6,0.3h5.4c0.4,0,0.7-0.3,0.7-0.7v-5.4
		c0-0.4-0.3-0.7-0.7-0.7h-3.6C14.8,20.2,14.5,20.4,14.4,20.7z M18,21.6v4h-3.8l1.3-4H18z"/>
</g>
</svg>
