<?xml version="1.0" encoding="utf-8"?>
<!-- Generator: Adobe Illustrator 23.0.0, SVG Export Plug-In . SVG Version: 6.00 Build 0)  -->
<svg version="1.1" id="圖層_1" xmlns="http://www.w3.org/2000/svg" xmlns:xlink="http://www.w3.org/1999/xlink" x="0px" y="0px"
	 viewBox="0 0 49.2 48.2" style="enable-background:new 0 0 49.2 48.2;" xml:space="preserve">
<path d="M44.6,41.5L35,32.4c2.9-3.2,4.7-7.4,4.7-12c0-9.8-7.9-17.7-17.7-17.7s-17.7,8-17.7,17.7s8,17.7,17.7,17.7
	c3.8,0,7.3-1.2,10.2-3.2l9.9,9.4c0.4,0.4,0.8,0.5,1.3,0.5c0.5,0,1-0.2,1.4-0.6C45.4,43.5,45.4,42.3,44.6,41.5z M7.6,20.4
	c0-7.9,6.4-14.3,14.3-14.3c7.9,0,14.3,6.4,14.3,14.3s-6.4,14.3-14.3,14.3S7.6,28.3,7.6,20.4z"/>
</svg>
