<?xml version="1.0" encoding="utf-8"?>
<!-- Generator: Adobe Illustrator 23.0.0, SVG Export Plug-In . SVG Version: 6.00 Build 0)  -->
<svg version="1.1" id="圖層_1" xmlns="http://www.w3.org/2000/svg" xmlns:xlink="http://www.w3.org/1999/xlink" x="0px" y="0px"
	 viewBox="0 0 50 50" style="enable-background:new 0 0 50 50;" xml:space="preserve">
<style type="text/css">
	.st0{fill:#1A1A1A;}
</style>
<g>
	<path class="st0" d="M33.8,27.8c-0.8-1.1-1.5-2.3-2.3-3.4l-0.2-0.2c-1.4-2.1-2.8-4.2-4.2-6.3c-0.5-0.7-1.3-1.2-2.1-1.2
		c-0.8,0-1.6,0.4-2.1,1.2c-2.4,3.6-4.6,6.8-6.7,9.9c-0.2,0.3-0.4,0.7-0.4,1.1c-0.1,0.7,0.1,1.4,0.6,1.9c0.5,0.5,1.2,0.8,1.9,0.8
		c0.8,0,1.8,0,2.9,0c0.6,0,1.2,0,1.8,0c0.6,0,1.1,0,1.7,0l0.3,0l1.8,0c1.6,0,3.3,0,5,0c1,0,1.7-0.5,2.2-1.4
		C34.4,29.5,34.4,28.6,33.8,27.8z M25,18.3c0.3,0,0.6,0.2,0.8,0.4c1.4,2.1,2.9,4.3,4.3,6.3l0.1,0.1c0.8,1.1,1.6,2.3,2.3,3.4
		c0.2,0.3,0.2,0.6,0.1,0.8c-0.2,0.4-0.4,0.5-0.8,0.5c-1.6,0-3.3,0-4.9,0L25,30c-0.7,0-1.4,0-2,0c-1.6,0-3.2,0-4.7,0
		c-0.2,0-0.5-0.1-0.6-0.3c-0.2-0.2-0.2-0.4-0.2-0.6c0-0.1,0.1-0.3,0.2-0.4c2.1-3.1,4.3-6.3,6.7-9.9C24.4,18.5,24.7,18.3,25,18.3
		l0-0.3L25,18.3z"/>
	<path class="st0" d="M25.4,50c-1.3,0-2.6,0-3.9,0c-1.5,0-2.5-0.8-2.8-2.3c0-0.1-0.1-0.3-0.1-0.4c0.1-1.7-1.2-3.2-2.9-3.3
		c-0.4,0-1.2,0.5-1.7,1c-0.3,0.2-0.5,0.4-0.8,0.6c-1.3,0.9-2.7,0.7-3.8-0.4c-0.8-0.8-1.5-1.6-2.3-2.4c-0.7-0.7-1.4-1.5-2.1-2.2
		c-1.8-1.9-1-3.4-0.1-4.3c1.2-1.3,1.4-2.1,0.6-3.4c-0.5-0.8-0.6-0.9-1.1-1c-1.9-0.3-3-0.5-3.7-1.4C0,29.4,0,28.3,0,26.4l0-1.2
		c0-1.1,0-2.3,0-3.4c0-0.9,0.3-1.7,0.9-2.3C1.4,19,2,18.7,2.7,18.7c0.7,0,1.7-0.1,2.4-0.9c0.6-0.7,1-1.4,1-2c0-0.5-0.5-1.1-0.9-1.7
		c-0.1-0.2-0.2-0.3-0.4-0.5c-1-1.3-0.9-2.8,0.2-3.9c1.4-1.5,3-3.1,4.7-4.6c0.3-0.3,0.7-0.5,1.1-0.7c0.7-0.3,1.6-0.3,2.3,0.2l0.1,0.1
		c0.6,0.3,1.2,0.7,1.7,1.1c0.5,0.4,0.7,0.4,0.8,0.4c1.6-0.5,2.1-0.9,2.3-1.1c0.3-0.5,0.4-1.2,0.5-1.9C18.8,2,19,1.2,19.7,0.7
		C20.4,0.1,21.3,0,22.3,0l1.1,0c1.6,0,3.2,0,4.7,0c2.1,0,3.1,0.9,3.1,2.8c0,1.9,0.7,2.8,2.7,3.3c0.2,0.1,0.4,0,0.5-0.1
		c0.6-0.4,1.2-0.9,1.9-1.3C37.7,3.9,39,4,40,5c1.6,1.5,3.3,3.1,4.9,4.7c1.2,1.2,1.3,2.8,0.2,3.9c-1.3,1.4-1.4,2.5-0.4,4.1
		c0.3,0.6,1,0.7,2.1,0.9c0.2,0,0.5,0.1,0.7,0.1c1.6,0.3,2.5,1.4,2.5,3v0c0,2.1,0,4.4,0,6.7c0,1.6-0.9,2.7-2.5,2.9c0,0-0.1,0-0.1,0
		c-1.4,0.3-2.1,0.5-2.5,0.8c-0.3,0.3-0.6,1-1.1,2.3c0,0,0,0,0,0c0.3,0.5,0.6,1,1,1.5c0.1,0.2,0.3,0.4,0.4,0.6
		c0.9,1.3,0.8,2.7-0.3,3.7c-1.8,1.8-3.4,3.4-4.9,4.9c-1.3,1.2-2.9,1.3-4.1,0.1c-0.7-0.8-1.7-1.1-2.5-1c-0.9,0.1-1.9,0.7-1.9,1.1
		c0,0.6-0.1,1.1-0.2,1.6c0,0.2-0.1,0.5-0.1,0.7C31,49.1,30,50,28.3,50C27.3,50,26.4,50,25.4,50z M20.9,47.1
		C20.9,47.1,20.9,47.2,20.9,47.1c0.1,0.5,0.2,0.6,0.7,0.6c2.1,0,4.3,0,6.7,0c0.5,0,0.7-0.1,0.7-0.6c0-0.3,0.1-0.5,0.1-0.8
		c0.1-0.4,0.2-0.8,0.2-1.1c0-2,2.4-3.1,3.9-3.3c1.6-0.2,3.2,0.4,4.4,1.7c0.1,0.1,0.4,0.4,0.9-0.2c1.5-1.4,3.1-3,4.8-4.8
		c0.3-0.3,0.3-0.5,0-0.9c-0.1-0.2-0.3-0.4-0.4-0.6c-0.4-0.5-0.7-1.1-1.1-1.6c-0.3-0.5-0.4-1.2-0.2-1.8c1.3-3.5,1.6-3.7,5.3-4.5l0,0
		c0.1,0,0.1,0,0.2,0c0.5-0.1,0.6-0.3,0.6-0.8c0-2.2,0-4.5,0-6.6l0,0c0-0.5-0.1-0.7-0.7-0.8c-0.2,0-0.4-0.1-0.6-0.1
		c-1.2-0.2-2.7-0.4-3.6-1.9c-1.5-2.4-1.3-4.7,0.7-6.8c0.1-0.1,0.3-0.3-0.2-0.8c-1.6-1.6-3.3-3.2-4.8-4.7c-0.2-0.2-0.5-0.3-0.9-0.1
		c-0.7,0.4-1.3,0.8-1.8,1.2c-0.7,0.5-1.6,0.7-2.5,0.5C30.4,7.5,29,5.7,29,2.8C29,2.5,29,2.4,29,2.4c0,0,0,0,0,0c0,0-0.2-0.1-0.8-0.1
		c-1.6,0-3.2,0-4.7,0l-1.1,0c-0.9,0-1.1,0.1-1.2,0.1c0,0-0.1,0.1-0.3,1c-0.1,0.9-0.3,2-0.9,2.9c-0.7,1-2.2,1.5-3.5,1.9
		c-1.4,0.4-2.4-0.4-2.8-0.8c-0.4-0.3-0.9-0.6-1.5-0.9L12,6.5c-0.1,0-0.2-0.1-0.3,0c-0.1,0.1-0.4,0.2-0.5,0.2
		c-1.6,1.5-3.2,3.1-4.6,4.6c-0.4,0.4-0.4,0.6,0,1.1c0.1,0.1,0.2,0.3,0.3,0.4c0.6,0.8,1.4,1.8,1.4,3.1c0,1.5-1,2.8-1.5,3.4
		c-1,1.1-2.4,1.7-4.1,1.7c-0.2,0-0.3,0.1-0.3,0.1c-0.1,0.1-0.2,0.3-0.2,0.7c0,1.1,0,2.3,0,3.4l0,1.2c0,1.2,0,2.2,0.2,2.5
		c0.2,0.2,1.3,0.4,2.4,0.6c1.5,0.3,2.1,1.2,2.6,2c1.8,2.9,0.4,4.9-0.8,6.2c-0.2,0.2-0.4,0.4-0.3,0.6c0,0.1,0.1,0.3,0.5,0.7
		c0.7,0.7,1.4,1.5,2.1,2.2c0.8,0.8,1.6,1.6,2.3,2.4c0.3,0.4,0.5,0.4,0.9,0.1c0.2-0.1,0.4-0.3,0.6-0.5c0.9-0.7,2-1.6,3.3-1.5
		C18.8,42,20.9,44.3,20.9,47.1z M43.8,34.4L43.8,34.4L43.8,34.4z M24.9,39.1c-7.8,0-14.1-6.3-14.1-14.1s6.3-14.1,14.1-14.1
		C32.7,10.9,39,17.2,39,25S32.7,39.1,24.9,39.1z M24.9,13.1c-6.6,0-11.9,5.3-11.9,11.9s5.3,11.9,11.9,11.9S36.8,31.6,36.8,25
		S31.5,13.1,24.9,13.1z"/>
	<g>
		<polygon class="st0" points="23.8,20.5 26.2,20.5 25.7,26.8 24.2,26.8 		"/>
		<circle class="st0" cx="24.9" cy="28.3" r="1.1"/>
	</g>
</g>
</svg>
