<?xml version="1.0" encoding="utf-8"?>
<!-- Generator: Adobe Illustrator 23.0.0, SVG Export Plug-In . SVG Version: 6.00 Build 0)  -->
<svg version="1.1" id="圖層_1" xmlns="http://www.w3.org/2000/svg" xmlns:xlink="http://www.w3.org/1999/xlink" x="0px" y="0px"
	 viewBox="0 0 86.6 86.6" style="enable-background:new 0 0 86.6 86.6;" xml:space="preserve">
<g>
	<path d="M61.9,20.6h-3.7c-0.5,0-1-0.4-1-1v-1.9c0-0.5-0.4-0.9-0.9-0.9h-6.6c-0.3,0-0.7-0.2-0.8-0.5c-1.2-2-3.3-3.2-5.6-3.2
		s-4.4,1.2-5.6,3.2c-0.2,0.3-0.5,0.5-0.8,0.5h-6.6c-0.5,0-0.9,0.4-0.9,0.9v1.9c0,0.5-0.4,1-1,1h-3.7c-1.5,0-2.8,1.2-2.8,2.8V68
		c0,1.5,1.2,2.8,2.8,2.8h37.2c1.5,0,2.8-1.2,2.8-2.8V23.4C64.6,21.9,63.4,20.6,61.9,20.6z M31.2,19.7c0-0.5,0.4-1,1-1h5.9
		c0.4,0,0.7-0.2,0.9-0.6c0.7-1.9,2.4-3.1,4.4-3.1s3.7,1.3,4.4,3.1c0.1,0.4,0.5,0.6,0.9,0.6h5.9c0.5,0,1,0.4,1,1v3.7c0,0.5-0.4,1-1,1
		H32.1c-0.5,0-1-0.4-1-1v-3.7H31.2z M62.8,68c0,0.5-0.4,1-1,1H24.7c-0.5,0-1-0.4-1-1V23.4c0-0.5,0.4-1,1-1h3.7c0.5,0,1,0.4,1,1v1.9
		c0,0.5,0.4,0.9,0.9,0.9h26c0.5,0,0.9-0.4,0.9-0.9v-1.9c0-0.5,0.4-1,1-1h3.7c0.5,0,1,0.4,1,1V68H62.8z"/>
	<path d="M56.3,35.5H47c-0.5,0-0.9,0.4-0.9,0.9s0.4,0.9,0.9,0.9h9.3c0.5,0,0.9-0.4,0.9-0.9S56.8,35.5,56.3,35.5z"/>
	<path d="M56.3,46.7H47c-0.5,0-0.9,0.4-0.9,0.9s0.4,0.9,0.9,0.9h9.3c0.5,0,0.9-0.4,0.9-0.9C57.2,47.1,56.8,46.7,56.3,46.7z"/>
	<path d="M56.3,57.8H47c-0.5,0-0.9,0.4-0.9,0.9s0.4,0.9,0.9,0.9h9.3c0.5,0,0.9-0.4,0.9-0.9S56.8,57.8,56.3,57.8z"/>
	<path d="M39.6,31.8c-0.3,0-0.6,0.1-0.7,0.4l-4.3,5.7c-0.2,0.2-0.4,0.4-0.7,0.4c0,0,0,0-0.1,0c-0.3,0-0.5-0.1-0.7-0.3l-2.2-2.2
		c-0.2-0.2-0.4-0.3-0.6-0.3s-0.5,0.1-0.6,0.3c-0.4,0.4-0.4,0.9,0,1.3l3.6,3.6l0.1,0.1c0,0,0.1,0,0.1,0.1c0,0,0.1,0,0.1,0.1l0.1,0.1
		c0.1,0,0.2,0.1,0.3,0.1l0,0c0.1,0,0.2,0,0.3-0.1l0.1-0.1l0.1-0.1l0,0c0,0,0-0.1,0.1-0.1l0.1-0.1l5.5-7.3c0.1-0.2,0.2-0.4,0.2-0.7
		c0-0.2-0.2-0.5-0.4-0.6C40,31.9,39.8,31.8,39.6,31.8z"/>
	<path d="M39.6,42.9c-0.3,0-0.6,0.1-0.7,0.4L34.6,49c-0.2,0.2-0.4,0.4-0.7,0.4c0,0,0,0-0.1,0c-0.3,0-0.5-0.1-0.7-0.3l-2.2-2.2
		c-0.2-0.2-0.4-0.3-0.6-0.3s-0.5,0.1-0.6,0.3c-0.4,0.4-0.4,0.9,0,1.3l3.6,3.6l0.1,0.1c0,0,0.1,0,0.1,0.1c0,0,0.1,0,0.1,0.1
		c0,0,0.1,0,0.1,0.1l0,0c0.1,0,0.2,0.1,0.3,0.1l0,0c0.1,0,0.2,0,0.3-0.1l0.1-0.1l0.1-0.1l0,0c0,0,0-0.1,0.1-0.1l0.1-0.1l5.5-7.3
		c0.1-0.2,0.2-0.4,0.2-0.7c0-0.2-0.2-0.5-0.4-0.6C40,43,39.8,42.9,39.6,42.9z"/>
	<path d="M39.6,54.1c-0.3,0-0.6,0.1-0.7,0.4l-4.3,5.7c-0.2,0.2-0.4,0.4-0.7,0.4c0,0,0,0-0.1,0c-0.3,0-0.5-0.1-0.7-0.3l-2.2-2.2
		c-0.2-0.2-0.4-0.3-0.6-0.3s-0.5,0.1-0.6,0.3c-0.4,0.4-0.4,0.9,0,1.3l3.6,3.6l0.1,0.1c0,0,0.1,0,0.1,0.1c0,0,0.1,0,0.1,0.1
		c0,0,0.1,0,0.1,0.1l0,0c0.1,0,0.2,0.1,0.3,0.1l0,0c0.1,0,0.2,0,0.3-0.1l0.1-0.1l0.1-0.1l0,0c0,0,0-0.1,0.1-0.1l0.1-0.1l5.5-7.3
		c0.1-0.2,0.2-0.4,0.2-0.7c0-0.2-0.2-0.5-0.4-0.6C40,54.1,39.8,54.1,39.6,54.1z"/>
	<path d="M43.3,20.6c0.5,0,0.9-0.4,0.9-0.9s-0.4-0.9-0.9-0.9s-0.9,0.4-0.9,0.9C42.4,20.2,42.8,20.6,43.3,20.6z"/>
	<path d="M43.3,0.8C19.9,0.8,0.8,19.9,0.8,43.3s19.1,42.5,42.5,42.5s42.5-19.1,42.5-42.5S66.7,0.8,43.3,0.8z M43.3,84.1
		c-22.5,0-40.8-18.3-40.8-40.8S20.8,2.5,43.3,2.5s40.8,18.3,40.8,40.8S65.8,84.1,43.3,84.1z"/>
</g>
</svg>
