<?xml version="1.0" encoding="utf-8"?>
<!-- Generator: Adobe Illustrator 16.0.0, SVG Export Plug-In . SVG Version: 6.00 Build 0)  -->
<!DOCTYPE svg PUBLIC "-//W3C//DTD SVG 1.1//EN" "http://www.w3.org/Graphics/SVG/1.1/DTD/svg11.dtd">
<svg version="1.1" id="圖層_1" xmlns="http://www.w3.org/2000/svg" xmlns:xlink="http://www.w3.org/1999/xlink" x="0px" y="0px"
	 width="50px" height="50px" viewBox="988.08 727.086 50 50" enable-background="new 988.08 727.086 50 50" xml:space="preserve">
<g>
	<path fill="#1F1E1D" d="M1010.876,759.499c0.555-0.486,0.989-1.053,1.291-1.684c0.32-0.668,0.476-1.377,0.463-2.105
		c-0.03-1.758-1.057-3.37-2.748-4.313c-0.162-0.09-1.038-0.554-2.428-0.83l-0.053-0.011v-5.241l0.082,0.02
		c0.534,0.127,1.027,0.366,1.426,0.692c0.601,0.491,0.938,1.137,0.95,1.819c0.01,0.57,0.482,1.033,1.054,1.033l0.015,0
		c0.58-0.01,1.043-0.489,1.033-1.069c-0.022-1.31-0.634-2.521-1.722-3.41c-0.758-0.619-1.695-1.033-2.711-1.197l-0.055-0.009
		l-0.022-1.271c-0.01-0.569-0.482-1.033-1.054-1.033h-0.015c-0.579,0.01-1.042,0.489-1.033,1.069l0.022,1.271l-0.054,0.011
		c-1.01,0.199-1.932,0.645-2.668,1.29c-1.057,0.926-1.626,2.157-1.604,3.467c0.021,1.279,0.608,2.469,1.65,3.351l0.012,0.01
		c0.625,0.519,1.454,0.847,2.608,1.032l0.056,0.009v6.382l-0.085-0.024c-0.726-0.213-1.35-0.593-1.805-1.097
		c-0.468-0.52-0.721-1.135-0.732-1.779c-0.01-0.57-0.482-1.033-1.054-1.033h-0.015c-0.281,0.005-0.543,0.119-0.738,0.32
		c-0.195,0.202-0.3,0.468-0.295,0.749c0.012,0.729,0.192,1.431,0.535,2.088c0.324,0.621,0.777,1.172,1.348,1.639
		c0.763,0.623,1.701,1.061,2.714,1.267l0.052,0.011l0.023,1.331c0.01,0.57,0.481,1.033,1.05,1.033h0.002h0.016
		c0.281-0.005,0.543-0.119,0.738-0.32c0.195-0.202,0.3-0.468,0.295-0.749l-0.021-1.215l0.059-0.007
		C1008.762,760.833,1009.943,760.316,1010.876,759.499 M1005.371,750.264l-0.08-0.017c-0.566-0.119-0.971-0.283-1.238-0.503
		l-0.001-0.001c-0.572-0.486-0.894-1.118-0.905-1.781c-0.012-0.682,0.303-1.339,0.887-1.85c0.354-0.31,0.774-0.544,1.25-0.696
		l0.086-0.027V750.264z M1007.402,752.707l0.083,0.021c0.841,0.214,1.323,0.476,1.375,0.505c1.028,0.573,1.652,1.513,1.669,2.513
		c0.025,1.478-1.257,2.789-3.049,3.118l-0.078,0.015V752.707z"/>
	<path fill="#1F1E1D" d="M1014.428,767.005c-2.387,1.252-5.081,1.913-7.79,1.913c-9.281,0-16.832-7.551-16.832-16.832
		c0-9.281,7.551-16.832,16.832-16.832c6.773,0,12.86,4.038,15.507,10.288c0.187,0.439,0.693,0.645,1.133,0.458
		s0.645-0.693,0.458-1.132c-0.699-1.651-1.636-3.192-2.782-4.581c-1.139-1.379-2.466-2.585-3.945-3.585
		c-3.071-2.077-6.657-3.174-10.371-3.174c-10.233,0-18.559,8.325-18.559,18.559s8.326,18.559,18.559,18.559
		c1.519,0,3.031-0.185,4.493-0.55c1.42-0.354,2.799-0.88,4.098-1.561c0.423-0.222,0.586-0.744,0.364-1.166
		C1015.373,766.946,1014.85,766.783,1014.428,767.005"/>
	<path fill="#1F1E1D" d="M1037.191,754.95c-0.568-1.346-1.383-2.554-2.42-3.591c-1.038-1.038-2.246-1.852-3.592-2.421
		c-1.393-0.589-2.873-0.888-4.397-0.888s-3.005,0.299-4.397,0.888c-1.346,0.569-2.554,1.383-3.591,2.421
		c-1.038,1.037-1.853,2.245-2.421,3.591c-0.59,1.394-0.889,2.873-0.889,4.397c0,1.525,0.299,3.005,0.889,4.398
		c0.568,1.345,1.383,2.554,2.421,3.591c1.037,1.037,2.245,1.852,3.591,2.421c1.393,0.589,2.873,0.888,4.397,0.888
		s3.005-0.299,4.397-0.888c1.346-0.569,2.554-1.384,3.592-2.421c1.037-1.037,1.852-2.246,2.42-3.591
		c0.59-1.394,0.889-2.873,0.889-4.398C1038.08,757.823,1037.781,756.344,1037.191,754.95 M1026.782,768.918
		c-5.277,0-9.57-4.293-9.57-9.57c0-5.276,4.293-9.57,9.57-9.57s9.57,4.294,9.57,9.57
		C1036.352,764.625,1032.059,768.918,1026.782,768.918"/>
	<path fill="#1F1E1D" d="M1032.86,758.484h-3.566c-0.266-0.771-0.877-1.382-1.647-1.648v-4.226c0-0.478-0.387-0.864-0.864-0.864
		c-0.477,0-0.863,0.387-0.863,0.864v4.226c-1.042,0.359-1.792,1.35-1.792,2.512c0,1.465,1.191,2.656,2.655,2.656
		c1.162,0,2.152-0.751,2.512-1.792h3.566c0.477,0,0.863-0.387,0.863-0.864C1033.723,758.871,1033.337,758.484,1032.86,758.484
		 M1026.782,760.276c-0.512,0-0.929-0.416-0.929-0.929c0-0.512,0.417-0.929,0.929-0.929s0.929,0.417,0.929,0.929
		C1027.711,759.86,1027.294,760.276,1026.782,760.276"/>
</g>
</svg>
