<?xml version="1.0" encoding="utf-8"?>
<!-- Generator: Adobe Illustrator 16.0.0, SVG Export Plug-In . SVG Version: 6.00 Build 0)  -->
<!DOCTYPE svg PUBLIC "-//W3C//DTD SVG 1.1//EN" "http://www.w3.org/Graphics/SVG/1.1/DTD/svg11.dtd">
<svg version="1.1" id="圖層_1" xmlns="http://www.w3.org/2000/svg" xmlns:xlink="http://www.w3.org/1999/xlink" x="0px" y="0px"
	 width="54.1px" height="54.1px" viewBox="0.001 -0.77 54.1 54.1" enable-background="new 0.001 -0.77 54.1 54.1"
	 xml:space="preserve">
<path d="M6.709,16.74c0.059,0.006,0.115,0.008,0.172,0.008c0.449,0,0.883-0.177,1.203-0.498l1.434-1.437l9.941,9.939L4.699,39.511
	c-1.189,1.188-1.761,2.832-1.604,4.625c0.148,1.682,0.928,3.307,2.178,4.553l0.123,0.127c1.461,1.457,3.342,2.203,5.135,2.203
	c1.519,0,2.974-0.533,4.062-1.621l10.992-10.989l12.354,12.521c1.051,1.051,2.494,1.631,4.063,1.631
	c1.854,0,3.724-0.807,5.231-2.319c1.271-1.271,2.05-2.894,2.195-4.573c0.153-1.791-0.414-3.436-1.598-4.615l-9.514-9.644
	c3.203-0.005,6.269-1.386,9.06-4.177l3.884-3.883c4.248-4.246,2.989-9.246,1-14.018l-0.979-2.345l-6.281,6.287
	c-0.925,0.929-1.76,1.461-2.474,1.584c-0.459,0.082-1.17,0.064-2.201-0.973l-0.121-0.117c-1.023-1.022-1.816-2.225,0.623-4.666
	l6.285-6.283L44.772,1.84c-4.771-1.992-9.771-3.242-14.016,1l-3.89,3.885c-4.349,4.354-5.591,9.355-3.589,14.24
	c-0.12,0.1-0.237,0.205-0.35,0.316l-1.068,1.067l-9.94-9.938l1.563-1.564c0.361-0.361,0.541-0.867,0.488-1.377
	c-0.053-0.508-0.33-0.965-0.758-1.246l-7.881-5.18c-0.675-0.44-1.566-0.354-2.139,0.22L0.496,5.965
	C-0.072,6.535-0.162,7.428,0.279,8.1l5.181,7.881C5.741,16.409,6.201,16.687,6.709,16.74 M45.42,43.442
	c0.47,0.47,0.688,1.152,0.622,1.93c-0.076,0.885-0.504,1.758-1.313,2.566c-0.773,0.775-1.771,1.22-2.729,1.22
	c-0.466,0-1.132-0.108-1.649-0.625L25.021,32.994l5.08-5.079L45.42,43.442z M25.336,23.685c0.19-0.19,0.436-0.34,0.746-0.457
	l1.84-0.688l-0.947-1.722c-2.209-4.02-1.434-7.952,2.299-11.688l3.891-3.885c1.98-1.984,4.186-2.363,7.885-1.17l-2.623,2.62
	c-4.394,4.396-2.275,7.822-0.609,9.488l0.121,0.117c1.975,1.979,3.904,2.125,5.176,1.906c1.438-0.252,2.846-1.08,4.296-2.531
	l2.62-2.623c1.191,3.705,0.813,5.908-1.17,7.889l-3.883,3.886c-3.476,3.475-7.16,4.094-11.248,1.921l-1.324-1.342
	c-0.528-0.535-1.186-0.951-1.951-1.24l-1.023-0.385l-3.066,3.063l-2.094-2.093L25.336,23.685z M23.958,29.251l-3.068,3.066
	l0.385,1.023c0.285,0.76,0.701,1.414,1.229,1.94l0.692,0.7L12.189,46.992c-1.045,1.048-3.016,0.784-4.371-0.563L7.695,46.3
	c-0.703-0.7-1.133-1.573-1.21-2.46c-0.067-0.773,0.152-1.459,0.619-1.926l14.76-14.76L23.958,29.251z M4.625,6.646l4.979,3.273
	l-2.449,2.449L3.881,7.389L4.625,6.646z"/>
</svg>
