<?xml version="1.0" encoding="utf-8"?>
<!-- Generator: Adobe Illustrator 23.0.0, SVG Export Plug-In . SVG Version: 6.00 Build 0)  -->
<svg version="1.1" id="圖層_1" xmlns="http://www.w3.org/2000/svg" xmlns:xlink="http://www.w3.org/1999/xlink" x="0px" y="0px"
	 viewBox="0 0 50 50" style="enable-background:new 0 0 50 50;" xml:space="preserve">
<path d="M34.3,32.4c-2,0-3.8-0.8-5.2-2.2l-1.8-1.8c-0.2-0.2-0.2-0.4-0.2-0.6s0.1-0.4,0.2-0.6c0.2-0.2,0.4-0.2,0.6-0.2
	s0.4,0.1,0.6,0.2l1.8,1.8c1.1,1.1,2.6,1.7,4.1,1.7c1.5,0,3-0.6,4.1-1.7c2.2-2.3,2.2-5.9,0-8.2c-1.1-1.1-2.5-1.7-4.1-1.7
	c-1.5,0-3,0.6-4.1,1.7l-9.3,9.3c-1.3,1.3-3.2,2.1-5.2,2.1c-2,0-3.9-0.8-5.2-2.1C9.1,28.8,8.3,27,8.3,25s0.8-3.8,2.2-5.2
	c1.3-1.3,3.2-2.1,5.2-2.1c2,0,3.9,0.8,5.2,2.1l1.8,1.8c0.2,0.2,0.2,0.4,0.2,0.6s-0.1,0.4-0.2,0.6c-0.2,0.2-0.4,0.2-0.6,0.2
	s-0.4-0.1-0.6-0.2l-1.8-1.8c-1.1-1.1-2.5-1.6-4.1-1.6c-1.5,0-3,0.6-4.1,1.6c-2.3,2.3-2.3,5.9,0,8.2c1,1.1,2.5,1.7,4.1,1.7
	c1.5,0,3-0.6,4-1.7l9.3-9.3c1.4-1.4,3.3-2.2,5.2-2.2c2,0,3.8,0.8,5.2,2.1c2.9,2.9,2.9,7.5,0,10.5C38.1,31.6,36.3,32.4,34.3,32.4z"/>
<path d="M25,50C11.2,50,0,38.8,0,25C0,11.2,11.2,0,25,0c13.8,0,25,11.2,25,25C50,38.8,38.8,50,25,50z M25,1.6
	C12.1,1.6,1.6,12.1,1.6,25c0,12.9,10.5,23.4,23.4,23.4c12.9,0,23.4-10.5,23.4-23.4C48.4,12.1,37.9,1.6,25,1.6z"/>
</svg>
