<svg xmlns="http://www.w3.org/2000/svg" width="991" height="658" viewBox="0 0 991 658" class="last-img-box__bg__svg">
  <defs>
    <mask id="last-img-box__bg__mask">
      <path fill="#fff" d="M606.589 312.91c-33.481-25.89-86.843-31.99-133.499-.189-63.98 43.584-70.825 123.675-36.228 185.607 34.225 61.417 98.902 82.648 172.8 75.992 83.629-7.544 150.541-53.409 189.562-106.632 35.11-47.869 72.826-163.72-1.91-274.171-56.946-84.094-131.217-111.101-210.748-111.009-87.632.049-148.026 65.843-189.888 115.342-65.002 76.921-94.618 93.917-150.587 98.575-55.876 4.703-107.796-19.185-133.499-45.634-25.75-26.446-40.092-46.19-40.092-46.19s31.152 58.065 73.013 92.802c45.026 37.388 114.499 55.691 188.723 28.869 88.238-31.848 136.572-86.283 166.046-103.138 60.161-34.365 142.021-6.38 159.39 55.364 20.161 71.614-18.58 119.947-18.58 119.947s13.319-48.659-34.503-85.535"/>
    </mask>
    <linearGradient id="last-img-box__bg__gradient" x1="0%" y1="0%" x2="57.735%" y2="100%"> 
    <stop offset="0%" stop-color="#a6cdd7" />
    <stop offset="100%" stop-color="#59a2b5" />
  </linearGradient>
  </defs>
  <path class="last-img-box__bg__line line-1" fill="none" stroke="#59a2b5" stroke-miterlimit="10" d="M72.5 204.601s14.342 19.744 40.092 46.19c25.703 26.45 77.623 50.337 133.499 45.634 55.969-4.658 85.585-21.653 150.587-98.575C438.54 148.352 498.934 82.557 586.566 82.508c79.531-.093 153.802 26.915 210.748 111.009 74.736 110.451 37.021 226.302 1.91 274.171-39.021 53.223-105.933 99.088-189.562 106.632-73.897 6.656-138.575-14.575-172.8-75.992-34.598-61.933-27.752-142.023 36.228-185.607 46.656-31.801 100.018-25.701 133.499.189 47.821 36.876 34.503 85.536 34.503 85.536"/>
  <path class="last-img-box__bg__line line-2" fill="none" stroke="#59a2b5" stroke-miterlimit="10" d="M72.5 204.601s31.152 58.065 73.013 92.802c45.026 37.388 114.499 55.691 188.723 28.869 88.238-31.848 136.572-86.283 166.046-103.138 60.161-34.365 142.021-6.38 159.39 55.364 20.161 71.614-18.58 119.947-18.58 119.947"/>
  <g mask="url(#last-img-box__bg__mask)" fill="url(#last-img-box__bg__gradient)">
    <path class="last-img-box__bg__rect" d="M69.159 77.032h774v502h-774z" transform="translate(0, 658)" />
  </g>
</svg>
